G04 #@! TF.GenerationSoftware,KiCad,Pcbnew,5.0.2-bee76a0~70~ubuntu16.04.1*
G04 #@! TF.CreationDate,2019-04-13T11:09:42+01:00*
G04 #@! TF.ProjectId,BusAdapter,42757341-6461-4707-9465-722e6b696361,rev?*
G04 #@! TF.SameCoordinates,PX3021c70PY8dff518*
G04 #@! TF.FileFunction,Legend,Top*
G04 #@! TF.FilePolarity,Positive*
%FSLAX46Y46*%
G04 Gerber Fmt 4.6, Leading zero omitted, Abs format (unit mm)*
G04 Created by KiCad (PCBNEW 5.0.2-bee76a0~70~ubuntu16.04.1) date Sat 13 Apr 2019 11:09:42 BST*
%MOMM*%
%LPD*%
G01*
G04 APERTURE LIST*
%ADD10C,0.300000*%
%ADD11C,0.152400*%
%ADD12C,0.200000*%
%ADD13C,0.120000*%
%ADD14C,0.150000*%
G04 APERTURE END LIST*
D10*
X8933571Y82760715D02*
X7433571Y82760715D01*
X7433571Y83332143D01*
X7505000Y83475000D01*
X7576428Y83546429D01*
X7719285Y83617858D01*
X7933571Y83617858D01*
X8076428Y83546429D01*
X8147857Y83475000D01*
X8219285Y83332143D01*
X8219285Y82760715D01*
X8933571Y84475000D02*
X8862142Y84332143D01*
X8790714Y84260715D01*
X8647857Y84189286D01*
X8219285Y84189286D01*
X8076428Y84260715D01*
X8005000Y84332143D01*
X7933571Y84475000D01*
X7933571Y84689286D01*
X8005000Y84832143D01*
X8076428Y84903572D01*
X8219285Y84975000D01*
X8647857Y84975000D01*
X8790714Y84903572D01*
X8862142Y84832143D01*
X8933571Y84689286D01*
X8933571Y84475000D01*
X7933571Y85475000D02*
X8933571Y85760715D01*
X8219285Y86046429D01*
X8933571Y86332143D01*
X7933571Y86617858D01*
X8862142Y87760715D02*
X8933571Y87617858D01*
X8933571Y87332143D01*
X8862142Y87189286D01*
X8719285Y87117858D01*
X8147857Y87117858D01*
X8005000Y87189286D01*
X7933571Y87332143D01*
X7933571Y87617858D01*
X8005000Y87760715D01*
X8147857Y87832143D01*
X8290714Y87832143D01*
X8433571Y87117858D01*
X8933571Y88475000D02*
X7933571Y88475000D01*
X8219285Y88475000D02*
X8076428Y88546429D01*
X8005000Y88617858D01*
X7933571Y88760715D01*
X7933571Y88903572D01*
D11*
X5521476Y86281381D02*
X5037666Y86281381D01*
X4989285Y85797572D01*
X5037666Y85845953D01*
X5134428Y85894334D01*
X5376333Y85894334D01*
X5473095Y85845953D01*
X5521476Y85797572D01*
X5569857Y85700810D01*
X5569857Y85458905D01*
X5521476Y85362143D01*
X5473095Y85313762D01*
X5376333Y85265381D01*
X5134428Y85265381D01*
X5037666Y85313762D01*
X4989285Y85362143D01*
X5860142Y86281381D02*
X6198809Y85265381D01*
X6537476Y86281381D01*
X5231190Y83741381D02*
X5327952Y83741381D01*
X5424714Y83693000D01*
X5473095Y83644620D01*
X5521476Y83547858D01*
X5569857Y83354334D01*
X5569857Y83112429D01*
X5521476Y82918905D01*
X5473095Y82822143D01*
X5424714Y82773762D01*
X5327952Y82725381D01*
X5231190Y82725381D01*
X5134428Y82773762D01*
X5086047Y82822143D01*
X5037666Y82918905D01*
X4989285Y83112429D01*
X4989285Y83354334D01*
X5037666Y83547858D01*
X5086047Y83644620D01*
X5134428Y83693000D01*
X5231190Y83741381D01*
X5860142Y83741381D02*
X6198809Y82725381D01*
X6537476Y83741381D01*
X5231190Y88821381D02*
X5327952Y88821381D01*
X5424714Y88773000D01*
X5473095Y88724620D01*
X5521476Y88627858D01*
X5569857Y88434334D01*
X5569857Y88192429D01*
X5521476Y87998905D01*
X5473095Y87902143D01*
X5424714Y87853762D01*
X5327952Y87805381D01*
X5231190Y87805381D01*
X5134428Y87853762D01*
X5086047Y87902143D01*
X5037666Y87998905D01*
X4989285Y88192429D01*
X4989285Y88434334D01*
X5037666Y88627858D01*
X5086047Y88724620D01*
X5134428Y88773000D01*
X5231190Y88821381D01*
X5860142Y88821381D02*
X6198809Y87805381D01*
X6537476Y88821381D01*
X51876476Y93901381D02*
X51392666Y93901381D01*
X51344285Y93417572D01*
X51392666Y93465953D01*
X51489428Y93514334D01*
X51731333Y93514334D01*
X51828095Y93465953D01*
X51876476Y93417572D01*
X51924857Y93320810D01*
X51924857Y93078905D01*
X51876476Y92982143D01*
X51828095Y92933762D01*
X51731333Y92885381D01*
X51489428Y92885381D01*
X51392666Y92933762D01*
X51344285Y92982143D01*
X52215142Y93901381D02*
X52553809Y92885381D01*
X52892476Y93901381D01*
X54126190Y93901381D02*
X54222952Y93901381D01*
X54319714Y93853000D01*
X54368095Y93804620D01*
X54416476Y93707858D01*
X54464857Y93514334D01*
X54464857Y93272429D01*
X54416476Y93078905D01*
X54368095Y92982143D01*
X54319714Y92933762D01*
X54222952Y92885381D01*
X54126190Y92885381D01*
X54029428Y92933762D01*
X53981047Y92982143D01*
X53932666Y93078905D01*
X53884285Y93272429D01*
X53884285Y93514334D01*
X53932666Y93707858D01*
X53981047Y93804620D01*
X54029428Y93853000D01*
X54126190Y93901381D01*
X54755142Y93901381D02*
X55093809Y92885381D01*
X55432476Y93901381D01*
X40718619Y12216191D02*
X40718619Y12312953D01*
X40767000Y12409715D01*
X40815380Y12458096D01*
X40912142Y12506477D01*
X41105666Y12554858D01*
X41347571Y12554858D01*
X41541095Y12506477D01*
X41637857Y12458096D01*
X41686238Y12409715D01*
X41734619Y12312953D01*
X41734619Y12216191D01*
X41686238Y12119429D01*
X41637857Y12071048D01*
X41541095Y12022667D01*
X41347571Y11974286D01*
X41105666Y11974286D01*
X40912142Y12022667D01*
X40815380Y12071048D01*
X40767000Y12119429D01*
X40718619Y12216191D01*
X40718619Y12845143D02*
X41734619Y13183810D01*
X40718619Y13522477D01*
X38178619Y12077096D02*
X38178619Y12706048D01*
X38565666Y12367381D01*
X38565666Y12512524D01*
X38614047Y12609286D01*
X38662428Y12657667D01*
X38759190Y12706048D01*
X39001095Y12706048D01*
X39097857Y12657667D01*
X39146238Y12609286D01*
X39194619Y12512524D01*
X39194619Y12222239D01*
X39146238Y12125477D01*
X39097857Y12077096D01*
X38178619Y12996334D02*
X39194619Y13335000D01*
X38178619Y13673667D01*
X38178619Y13915572D02*
X38178619Y14544524D01*
X38565666Y14205858D01*
X38565666Y14351000D01*
X38614047Y14447762D01*
X38662428Y14496143D01*
X38759190Y14544524D01*
X39001095Y14544524D01*
X39097857Y14496143D01*
X39146238Y14447762D01*
X39194619Y14351000D01*
X39194619Y14060715D01*
X39146238Y13963953D01*
X39097857Y13915572D01*
D12*
X82550000Y21590000D02*
X82550000Y12700000D01*
X63500000Y21590000D02*
X63500000Y12700000D01*
X63500000Y21590000D02*
X82550000Y21590000D01*
X82550000Y12700000D02*
X63500000Y12700000D01*
D10*
X32960714Y2496429D02*
X32960714Y3996429D01*
X33532142Y3996429D01*
X33675000Y3925000D01*
X33746428Y3853572D01*
X33817857Y3710715D01*
X33817857Y3496429D01*
X33746428Y3353572D01*
X33675000Y3282143D01*
X33532142Y3210715D01*
X32960714Y3210715D01*
X34460714Y2496429D02*
X34460714Y3996429D01*
X34960714Y2925000D01*
X35460714Y3996429D01*
X35460714Y2496429D01*
X36103571Y3853572D02*
X36175000Y3925000D01*
X36317857Y3996429D01*
X36675000Y3996429D01*
X36817857Y3925000D01*
X36889285Y3853572D01*
X36960714Y3710715D01*
X36960714Y3567858D01*
X36889285Y3353572D01*
X36032142Y2496429D01*
X36960714Y2496429D01*
X65024999Y19802143D02*
X65239285Y19730715D01*
X65310714Y19659286D01*
X65382142Y19516429D01*
X65382142Y19302143D01*
X65310714Y19159286D01*
X65239285Y19087858D01*
X65096428Y19016429D01*
X64524999Y19016429D01*
X64524999Y20516429D01*
X65024999Y20516429D01*
X65167857Y20445000D01*
X65239285Y20373572D01*
X65310714Y20230715D01*
X65310714Y20087858D01*
X65239285Y19945000D01*
X65167857Y19873572D01*
X65024999Y19802143D01*
X64524999Y19802143D01*
X66596428Y19087858D02*
X66453571Y19016429D01*
X66167857Y19016429D01*
X66024999Y19087858D01*
X65953571Y19230715D01*
X65953571Y19802143D01*
X66024999Y19945000D01*
X66167857Y20016429D01*
X66453571Y20016429D01*
X66596428Y19945000D01*
X66667857Y19802143D01*
X66667857Y19659286D01*
X65953571Y19516429D01*
X67882142Y19087858D02*
X67739285Y19016429D01*
X67453571Y19016429D01*
X67310714Y19087858D01*
X67239285Y19230715D01*
X67239285Y19802143D01*
X67310714Y19945000D01*
X67453571Y20016429D01*
X67739285Y20016429D01*
X67882142Y19945000D01*
X67953571Y19802143D01*
X67953571Y19659286D01*
X67239285Y19516429D01*
X68596428Y19016429D02*
X68596428Y20516429D01*
X68596428Y19945000D02*
X68739285Y20016429D01*
X69024999Y20016429D01*
X69167857Y19945000D01*
X69239285Y19873572D01*
X69310714Y19730715D01*
X69310714Y19302143D01*
X69239285Y19159286D01*
X69167857Y19087858D01*
X69024999Y19016429D01*
X68739285Y19016429D01*
X68596428Y19087858D01*
X71882142Y19016429D02*
X71024999Y19016429D01*
X71453571Y19016429D02*
X71453571Y20516429D01*
X71310714Y20302143D01*
X71167857Y20159286D01*
X71024999Y20087858D01*
X72524999Y19016429D02*
X72524999Y20516429D01*
X73024999Y19445000D01*
X73524999Y20516429D01*
X73524999Y19016429D01*
X74239285Y19016429D02*
X74239285Y20516429D01*
X74239285Y19802143D02*
X75096428Y19802143D01*
X75096428Y19016429D02*
X75096428Y20516429D01*
X75667857Y20016429D02*
X76453571Y20016429D01*
X75667857Y19016429D01*
X76453571Y19016429D01*
X78667857Y19802143D02*
X78882142Y19730715D01*
X78953571Y19659286D01*
X79024999Y19516429D01*
X79024999Y19302143D01*
X78953571Y19159286D01*
X78882142Y19087858D01*
X78739285Y19016429D01*
X78167857Y19016429D01*
X78167857Y20516429D01*
X78667857Y20516429D01*
X78810714Y20445000D01*
X78882142Y20373572D01*
X78953571Y20230715D01*
X78953571Y20087858D01*
X78882142Y19945000D01*
X78810714Y19873572D01*
X78667857Y19802143D01*
X78167857Y19802143D01*
X80310714Y20016429D02*
X80310714Y19016429D01*
X79667857Y20016429D02*
X79667857Y19230715D01*
X79739285Y19087858D01*
X79882142Y19016429D01*
X80096428Y19016429D01*
X80239285Y19087858D01*
X80310714Y19159286D01*
X80953571Y19087858D02*
X81096428Y19016429D01*
X81382142Y19016429D01*
X81524999Y19087858D01*
X81596428Y19230715D01*
X81596428Y19302143D01*
X81524999Y19445000D01*
X81382142Y19516429D01*
X81167857Y19516429D01*
X81024999Y19587858D01*
X80953571Y19730715D01*
X80953571Y19802143D01*
X81024999Y19945000D01*
X81167857Y20016429D01*
X81382142Y20016429D01*
X81524999Y19945000D01*
X66275000Y17252143D02*
X65775000Y17252143D01*
X65775000Y16466429D02*
X65775000Y17966429D01*
X66489285Y17966429D01*
X67060714Y16466429D02*
X67060714Y17966429D01*
X67632142Y17966429D01*
X67775000Y17895000D01*
X67846428Y17823572D01*
X67917857Y17680715D01*
X67917857Y17466429D01*
X67846428Y17323572D01*
X67775000Y17252143D01*
X67632142Y17180715D01*
X67060714Y17180715D01*
X69346428Y17895000D02*
X69203571Y17966429D01*
X68989285Y17966429D01*
X68775000Y17895000D01*
X68632142Y17752143D01*
X68560714Y17609286D01*
X68489285Y17323572D01*
X68489285Y17109286D01*
X68560714Y16823572D01*
X68632142Y16680715D01*
X68775000Y16537858D01*
X68989285Y16466429D01*
X69132142Y16466429D01*
X69346428Y16537858D01*
X69417857Y16609286D01*
X69417857Y17109286D01*
X69132142Y17109286D01*
X69989285Y16895000D02*
X70703571Y16895000D01*
X69846428Y16466429D02*
X70346428Y17966429D01*
X70846428Y16466429D01*
X72417857Y16895000D02*
X73132142Y16895000D01*
X72275000Y16466429D02*
X72775000Y17966429D01*
X73275000Y16466429D01*
X74417857Y16466429D02*
X74417857Y17966429D01*
X74417857Y16537858D02*
X74275000Y16466429D01*
X73989285Y16466429D01*
X73846428Y16537858D01*
X73775000Y16609286D01*
X73703571Y16752143D01*
X73703571Y17180715D01*
X73775000Y17323572D01*
X73846428Y17395000D01*
X73989285Y17466429D01*
X74275000Y17466429D01*
X74417857Y17395000D01*
X75775000Y16466429D02*
X75775000Y17252143D01*
X75703571Y17395000D01*
X75560714Y17466429D01*
X75275000Y17466429D01*
X75132142Y17395000D01*
X75775000Y16537858D02*
X75632142Y16466429D01*
X75275000Y16466429D01*
X75132142Y16537858D01*
X75060714Y16680715D01*
X75060714Y16823572D01*
X75132142Y16966429D01*
X75275000Y17037858D01*
X75632142Y17037858D01*
X75775000Y17109286D01*
X76489285Y17466429D02*
X76489285Y15966429D01*
X76489285Y17395000D02*
X76632142Y17466429D01*
X76917857Y17466429D01*
X77060714Y17395000D01*
X77132142Y17323572D01*
X77203571Y17180715D01*
X77203571Y16752143D01*
X77132142Y16609286D01*
X77060714Y16537858D01*
X76917857Y16466429D01*
X76632142Y16466429D01*
X76489285Y16537858D01*
X77632142Y17466429D02*
X78203571Y17466429D01*
X77846428Y17966429D02*
X77846428Y16680715D01*
X77917857Y16537858D01*
X78060714Y16466429D01*
X78203571Y16466429D01*
X78917857Y16466429D02*
X78775000Y16537858D01*
X78703571Y16609286D01*
X78632142Y16752143D01*
X78632142Y17180715D01*
X78703571Y17323572D01*
X78775000Y17395000D01*
X78917857Y17466429D01*
X79132142Y17466429D01*
X79275000Y17395000D01*
X79346428Y17323572D01*
X79417857Y17180715D01*
X79417857Y16752143D01*
X79346428Y16609286D01*
X79275000Y16537858D01*
X79132142Y16466429D01*
X78917857Y16466429D01*
X80060714Y16466429D02*
X80060714Y17466429D01*
X80060714Y17180715D02*
X80132142Y17323572D01*
X80203571Y17395000D01*
X80346428Y17466429D01*
X80489285Y17466429D01*
X65703571Y15059286D02*
X65560714Y15130715D01*
X65275000Y15130715D01*
X65132142Y15059286D01*
X64989285Y14916429D01*
X64917857Y14773572D01*
X64917857Y14487858D01*
X64989285Y14345000D01*
X65132142Y14202143D01*
X65275000Y14130715D01*
X65560714Y14130715D01*
X65703571Y14202143D01*
X65417857Y15630715D02*
X65060714Y15559286D01*
X64703571Y15345000D01*
X64489285Y14987858D01*
X64417857Y14630715D01*
X64489285Y14273572D01*
X64703571Y13916429D01*
X65060714Y13702143D01*
X65417857Y13630715D01*
X65775000Y13702143D01*
X66132142Y13916429D01*
X66346428Y14273572D01*
X66417857Y14630715D01*
X66346428Y14987858D01*
X66132142Y15345000D01*
X65775000Y15559286D01*
X65417857Y15630715D01*
X68132142Y15273572D02*
X68203571Y15345000D01*
X68346428Y15416429D01*
X68703571Y15416429D01*
X68846428Y15345000D01*
X68917857Y15273572D01*
X68989285Y15130715D01*
X68989285Y14987858D01*
X68917857Y14773572D01*
X68060714Y13916429D01*
X68989285Y13916429D01*
X69917857Y15416429D02*
X70060714Y15416429D01*
X70203571Y15345000D01*
X70275000Y15273572D01*
X70346428Y15130715D01*
X70417857Y14845000D01*
X70417857Y14487858D01*
X70346428Y14202143D01*
X70275000Y14059286D01*
X70203571Y13987858D01*
X70060714Y13916429D01*
X69917857Y13916429D01*
X69775000Y13987858D01*
X69703571Y14059286D01*
X69632142Y14202143D01*
X69560714Y14487858D01*
X69560714Y14845000D01*
X69632142Y15130715D01*
X69703571Y15273572D01*
X69775000Y15345000D01*
X69917857Y15416429D01*
X71846428Y13916429D02*
X70989285Y13916429D01*
X71417857Y13916429D02*
X71417857Y15416429D01*
X71275000Y15202143D01*
X71132142Y15059286D01*
X70989285Y14987858D01*
X72560714Y13916429D02*
X72846428Y13916429D01*
X72989285Y13987858D01*
X73060714Y14059286D01*
X73203571Y14273572D01*
X73275000Y14559286D01*
X73275000Y15130715D01*
X73203571Y15273572D01*
X73132142Y15345000D01*
X72989285Y15416429D01*
X72703571Y15416429D01*
X72560714Y15345000D01*
X72489285Y15273572D01*
X72417857Y15130715D01*
X72417857Y14773572D01*
X72489285Y14630715D01*
X72560714Y14559286D01*
X72703571Y14487858D01*
X72989285Y14487858D01*
X73132142Y14559286D01*
X73203571Y14630715D01*
X73275000Y14773572D01*
X75060714Y13916429D02*
X75060714Y15416429D01*
X75060714Y14702143D02*
X75917857Y14702143D01*
X75917857Y13916429D02*
X75917857Y15416429D01*
X76846428Y13916429D02*
X76703571Y13987858D01*
X76632142Y14059286D01*
X76560714Y14202143D01*
X76560714Y14630715D01*
X76632142Y14773572D01*
X76703571Y14845000D01*
X76846428Y14916429D01*
X77060714Y14916429D01*
X77203571Y14845000D01*
X77275000Y14773572D01*
X77346428Y14630715D01*
X77346428Y14202143D01*
X77275000Y14059286D01*
X77203571Y13987858D01*
X77060714Y13916429D01*
X76846428Y13916429D01*
X78632142Y14916429D02*
X78632142Y13702143D01*
X78560714Y13559286D01*
X78489285Y13487858D01*
X78346428Y13416429D01*
X78132142Y13416429D01*
X77989285Y13487858D01*
X78632142Y13987858D02*
X78489285Y13916429D01*
X78203571Y13916429D01*
X78060714Y13987858D01*
X77989285Y14059286D01*
X77917857Y14202143D01*
X77917857Y14630715D01*
X77989285Y14773572D01*
X78060714Y14845000D01*
X78203571Y14916429D01*
X78489285Y14916429D01*
X78632142Y14845000D01*
X79560714Y13916429D02*
X79417857Y13987858D01*
X79346428Y14130715D01*
X79346428Y15416429D01*
X80703571Y13987858D02*
X80560714Y13916429D01*
X80274999Y13916429D01*
X80132142Y13987858D01*
X80060714Y14130715D01*
X80060714Y14702143D01*
X80132142Y14845000D01*
X80274999Y14916429D01*
X80560714Y14916429D01*
X80703571Y14845000D01*
X80774999Y14702143D01*
X80774999Y14559286D01*
X80060714Y14416429D01*
X81203571Y14916429D02*
X81774999Y14916429D01*
X81417857Y15416429D02*
X81417857Y14130715D01*
X81489285Y13987858D01*
X81632142Y13916429D01*
X81774999Y13916429D01*
D11*
X93193809Y61135381D02*
X93193809Y62151381D01*
X93580857Y62151381D01*
X93677619Y62103000D01*
X93726000Y62054620D01*
X93774380Y61957858D01*
X93774380Y61812715D01*
X93726000Y61715953D01*
X93677619Y61667572D01*
X93580857Y61619191D01*
X93193809Y61619191D01*
X94209809Y61135381D02*
X94209809Y62151381D01*
X94548476Y61425667D01*
X94887142Y62151381D01*
X94887142Y61135381D01*
X95903142Y61135381D02*
X95322571Y61135381D01*
X95612857Y61135381D02*
X95612857Y62151381D01*
X95516095Y62006239D01*
X95419333Y61909477D01*
X95322571Y61861096D01*
X96338571Y61232143D02*
X96386952Y61183762D01*
X96338571Y61135381D01*
X96290190Y61183762D01*
X96338571Y61232143D01*
X96338571Y61135381D01*
X97257809Y62151381D02*
X97064285Y62151381D01*
X96967523Y62103000D01*
X96919142Y62054620D01*
X96822380Y61909477D01*
X96774000Y61715953D01*
X96774000Y61328905D01*
X96822380Y61232143D01*
X96870761Y61183762D01*
X96967523Y61135381D01*
X97161047Y61135381D01*
X97257809Y61183762D01*
X97306190Y61232143D01*
X97354571Y61328905D01*
X97354571Y61570810D01*
X97306190Y61667572D01*
X97257809Y61715953D01*
X97161047Y61764334D01*
X96967523Y61764334D01*
X96870761Y61715953D01*
X96822380Y61667572D01*
X96774000Y61570810D01*
X93193809Y63675381D02*
X93193809Y64691381D01*
X93580857Y64691381D01*
X93677619Y64643000D01*
X93726000Y64594620D01*
X93774380Y64497858D01*
X93774380Y64352715D01*
X93726000Y64255953D01*
X93677619Y64207572D01*
X93580857Y64159191D01*
X93193809Y64159191D01*
X94209809Y63675381D02*
X94209809Y64691381D01*
X94548476Y63965667D01*
X94887142Y64691381D01*
X94887142Y63675381D01*
X95903142Y63675381D02*
X95322571Y63675381D01*
X95612857Y63675381D02*
X95612857Y64691381D01*
X95516095Y64546239D01*
X95419333Y64449477D01*
X95322571Y64401096D01*
X96338571Y63772143D02*
X96386952Y63723762D01*
X96338571Y63675381D01*
X96290190Y63723762D01*
X96338571Y63772143D01*
X96338571Y63675381D01*
X96725619Y64691381D02*
X97402952Y64691381D01*
X96967523Y63675381D01*
X85876190Y62151381D02*
X85972952Y62151381D01*
X86069714Y62103000D01*
X86118095Y62054620D01*
X86166476Y61957858D01*
X86214857Y61764334D01*
X86214857Y61522429D01*
X86166476Y61328905D01*
X86118095Y61232143D01*
X86069714Y61183762D01*
X85972952Y61135381D01*
X85876190Y61135381D01*
X85779428Y61183762D01*
X85731047Y61232143D01*
X85682666Y61328905D01*
X85634285Y61522429D01*
X85634285Y61764334D01*
X85682666Y61957858D01*
X85731047Y62054620D01*
X85779428Y62103000D01*
X85876190Y62151381D01*
X86505142Y62151381D02*
X86843809Y61135381D01*
X87182476Y62151381D01*
X85876190Y64691381D02*
X85972952Y64691381D01*
X86069714Y64643000D01*
X86118095Y64594620D01*
X86166476Y64497858D01*
X86214857Y64304334D01*
X86214857Y64062429D01*
X86166476Y63868905D01*
X86118095Y63772143D01*
X86069714Y63723762D01*
X85972952Y63675381D01*
X85876190Y63675381D01*
X85779428Y63723762D01*
X85731047Y63772143D01*
X85682666Y63868905D01*
X85634285Y64062429D01*
X85634285Y64304334D01*
X85682666Y64497858D01*
X85731047Y64594620D01*
X85779428Y64643000D01*
X85876190Y64691381D01*
X86505142Y64691381D02*
X86843809Y63675381D01*
X87182476Y64691381D01*
D10*
X8517142Y11386429D02*
X8517142Y12886429D01*
X9374285Y11386429D01*
X9374285Y12886429D01*
X10088571Y11386429D02*
X10088571Y12886429D01*
X10588571Y11815000D01*
X11088571Y12886429D01*
X11088571Y11386429D01*
X11802857Y11386429D02*
X11802857Y12886429D01*
X2274285Y11386429D02*
X2274285Y12886429D01*
X3845714Y11386429D02*
X3345714Y12100715D01*
X2988571Y11386429D02*
X2988571Y12886429D01*
X3560000Y12886429D01*
X3702857Y12815000D01*
X3774285Y12743572D01*
X3845714Y12600715D01*
X3845714Y12386429D01*
X3774285Y12243572D01*
X3702857Y12172143D01*
X3560000Y12100715D01*
X2988571Y12100715D01*
X5488571Y11243572D02*
X5345714Y11315000D01*
X5202857Y11457858D01*
X4988571Y11672143D01*
X4845714Y11743572D01*
X4702857Y11743572D01*
X4774285Y11386429D02*
X4631428Y11457858D01*
X4488571Y11600715D01*
X4417142Y11886429D01*
X4417142Y12386429D01*
X4488571Y12672143D01*
X4631428Y12815000D01*
X4774285Y12886429D01*
X5060000Y12886429D01*
X5202857Y12815000D01*
X5345714Y12672143D01*
X5417142Y12386429D01*
X5417142Y11886429D01*
X5345714Y11600715D01*
X5202857Y11457858D01*
X5060000Y11386429D01*
X4774285Y11386429D01*
D11*
X85876190Y48181381D02*
X85972952Y48181381D01*
X86069714Y48133000D01*
X86118095Y48084620D01*
X86166476Y47987858D01*
X86214857Y47794334D01*
X86214857Y47552429D01*
X86166476Y47358905D01*
X86118095Y47262143D01*
X86069714Y47213762D01*
X85972952Y47165381D01*
X85876190Y47165381D01*
X85779428Y47213762D01*
X85731047Y47262143D01*
X85682666Y47358905D01*
X85634285Y47552429D01*
X85634285Y47794334D01*
X85682666Y47987858D01*
X85731047Y48084620D01*
X85779428Y48133000D01*
X85876190Y48181381D01*
X86505142Y48181381D02*
X86843809Y47165381D01*
X87182476Y48181381D01*
X85102095Y45641381D02*
X85731047Y45641381D01*
X85392380Y45254334D01*
X85537523Y45254334D01*
X85634285Y45205953D01*
X85682666Y45157572D01*
X85731047Y45060810D01*
X85731047Y44818905D01*
X85682666Y44722143D01*
X85634285Y44673762D01*
X85537523Y44625381D01*
X85247238Y44625381D01*
X85150476Y44673762D01*
X85102095Y44722143D01*
X86021333Y45641381D02*
X86360000Y44625381D01*
X86698666Y45641381D01*
X86940571Y45641381D02*
X87569523Y45641381D01*
X87230857Y45254334D01*
X87376000Y45254334D01*
X87472761Y45205953D01*
X87521142Y45157572D01*
X87569523Y45060810D01*
X87569523Y44818905D01*
X87521142Y44722143D01*
X87472761Y44673762D01*
X87376000Y44625381D01*
X87085714Y44625381D01*
X86988952Y44673762D01*
X86940571Y44722143D01*
X85102095Y68501381D02*
X85731047Y68501381D01*
X85392380Y68114334D01*
X85537523Y68114334D01*
X85634285Y68065953D01*
X85682666Y68017572D01*
X85731047Y67920810D01*
X85731047Y67678905D01*
X85682666Y67582143D01*
X85634285Y67533762D01*
X85537523Y67485381D01*
X85247238Y67485381D01*
X85150476Y67533762D01*
X85102095Y67582143D01*
X86021333Y68501381D02*
X86360000Y67485381D01*
X86698666Y68501381D01*
X86940571Y68501381D02*
X87569523Y68501381D01*
X87230857Y68114334D01*
X87376000Y68114334D01*
X87472761Y68065953D01*
X87521142Y68017572D01*
X87569523Y67920810D01*
X87569523Y67678905D01*
X87521142Y67582143D01*
X87472761Y67533762D01*
X87376000Y67485381D01*
X87085714Y67485381D01*
X86988952Y67533762D01*
X86940571Y67582143D01*
X85876190Y71041381D02*
X85972952Y71041381D01*
X86069714Y70993000D01*
X86118095Y70944620D01*
X86166476Y70847858D01*
X86214857Y70654334D01*
X86214857Y70412429D01*
X86166476Y70218905D01*
X86118095Y70122143D01*
X86069714Y70073762D01*
X85972952Y70025381D01*
X85876190Y70025381D01*
X85779428Y70073762D01*
X85731047Y70122143D01*
X85682666Y70218905D01*
X85634285Y70412429D01*
X85634285Y70654334D01*
X85682666Y70847858D01*
X85731047Y70944620D01*
X85779428Y70993000D01*
X85876190Y71041381D01*
X86505142Y71041381D02*
X86843809Y70025381D01*
X87182476Y71041381D01*
D10*
X13235714Y23812858D02*
X13307142Y23741429D01*
X13378571Y23527143D01*
X13378571Y23384286D01*
X13307142Y23170000D01*
X13164285Y23027143D01*
X13021428Y22955715D01*
X12735714Y22884286D01*
X12521428Y22884286D01*
X12235714Y22955715D01*
X12092857Y23027143D01*
X11950000Y23170000D01*
X11878571Y23384286D01*
X11878571Y23527143D01*
X11950000Y23741429D01*
X12021428Y23812858D01*
X13378571Y24670000D02*
X13307142Y24527143D01*
X13235714Y24455715D01*
X13092857Y24384286D01*
X12664285Y24384286D01*
X12521428Y24455715D01*
X12450000Y24527143D01*
X12378571Y24670000D01*
X12378571Y24884286D01*
X12450000Y25027143D01*
X12521428Y25098572D01*
X12664285Y25170000D01*
X13092857Y25170000D01*
X13235714Y25098572D01*
X13307142Y25027143D01*
X13378571Y24884286D01*
X13378571Y24670000D01*
X12378571Y25812858D02*
X13378571Y25812858D01*
X12521428Y25812858D02*
X12450000Y25884286D01*
X12378571Y26027143D01*
X12378571Y26241429D01*
X12450000Y26384286D01*
X12592857Y26455715D01*
X13378571Y26455715D01*
X12378571Y26955715D02*
X12378571Y27527143D01*
X11878571Y27170001D02*
X13164285Y27170000D01*
X13307142Y27241429D01*
X13378571Y27384286D01*
X13378571Y27527143D01*
X13378571Y28027143D02*
X12378571Y28027143D01*
X12664285Y28027143D02*
X12521428Y28098572D01*
X12450000Y28170000D01*
X12378571Y28312858D01*
X12378571Y28455715D01*
X13378571Y29170000D02*
X13307142Y29027143D01*
X13235714Y28955715D01*
X13092857Y28884286D01*
X12664285Y28884286D01*
X12521428Y28955715D01*
X12450000Y29027143D01*
X12378571Y29170000D01*
X12378571Y29384286D01*
X12450000Y29527143D01*
X12521428Y29598572D01*
X12664285Y29670000D01*
X13092857Y29670000D01*
X13235714Y29598572D01*
X13307142Y29527143D01*
X13378571Y29384286D01*
X13378571Y29170000D01*
X13378571Y30527143D02*
X13307142Y30384286D01*
X13164285Y30312858D01*
X11878571Y30312858D01*
X13378571Y52431429D02*
X11878571Y52431429D01*
X11878571Y52788572D01*
X11950000Y53002858D01*
X12092857Y53145715D01*
X12235714Y53217143D01*
X12521428Y53288572D01*
X12735714Y53288572D01*
X13021428Y53217143D01*
X13164285Y53145715D01*
X13307142Y53002858D01*
X13378571Y52788572D01*
X13378571Y52431429D01*
X13378571Y54574286D02*
X12592857Y54574286D01*
X12450000Y54502858D01*
X12378571Y54360000D01*
X12378571Y54074286D01*
X12450000Y53931429D01*
X13307142Y54574286D02*
X13378571Y54431429D01*
X13378571Y54074286D01*
X13307142Y53931429D01*
X13164285Y53860000D01*
X13021428Y53860000D01*
X12878571Y53931429D01*
X12807142Y54074286D01*
X12807142Y54431429D01*
X12735714Y54574286D01*
X12378571Y55074286D02*
X12378571Y55645715D01*
X11878571Y55288572D02*
X13164285Y55288572D01*
X13307142Y55360000D01*
X13378571Y55502858D01*
X13378571Y55645715D01*
X13378571Y56788572D02*
X12592857Y56788572D01*
X12450000Y56717143D01*
X12378571Y56574286D01*
X12378571Y56288572D01*
X12450000Y56145715D01*
X13307142Y56788572D02*
X13378571Y56645715D01*
X13378571Y56288572D01*
X13307142Y56145715D01*
X13164285Y56074286D01*
X13021428Y56074286D01*
X12878571Y56145715D01*
X12807142Y56288572D01*
X12807142Y56645715D01*
X12735714Y56788572D01*
X12950000Y75339286D02*
X12950000Y76053572D01*
X13378571Y75196429D02*
X11878571Y75696429D01*
X13378571Y76196429D01*
X13378571Y77339286D02*
X11878571Y77339286D01*
X13307142Y77339286D02*
X13378571Y77196429D01*
X13378571Y76910715D01*
X13307142Y76767858D01*
X13235714Y76696429D01*
X13092857Y76625000D01*
X12664285Y76625000D01*
X12521428Y76696429D01*
X12450000Y76767858D01*
X12378571Y76910715D01*
X12378571Y77196429D01*
X12450000Y77339286D01*
X13378571Y78696429D02*
X11878571Y78696429D01*
X13307142Y78696429D02*
X13378571Y78553572D01*
X13378571Y78267858D01*
X13307142Y78125000D01*
X13235714Y78053572D01*
X13092857Y77982143D01*
X12664285Y77982143D01*
X12521428Y78053572D01*
X12450000Y78125000D01*
X12378571Y78267858D01*
X12378571Y78553572D01*
X12450000Y78696429D01*
X13378571Y79410715D02*
X12378571Y79410715D01*
X12664285Y79410715D02*
X12521428Y79482143D01*
X12450000Y79553572D01*
X12378571Y79696429D01*
X12378571Y79839286D01*
X13307142Y80910715D02*
X13378571Y80767858D01*
X13378571Y80482143D01*
X13307142Y80339286D01*
X13164285Y80267858D01*
X12592857Y80267858D01*
X12450000Y80339286D01*
X12378571Y80482143D01*
X12378571Y80767858D01*
X12450000Y80910715D01*
X12592857Y80982143D01*
X12735714Y80982143D01*
X12878571Y80267858D01*
X13307142Y81553572D02*
X13378571Y81696429D01*
X13378571Y81982143D01*
X13307142Y82125001D01*
X13164285Y82196429D01*
X13092857Y82196429D01*
X12950000Y82125001D01*
X12878571Y81982143D01*
X12878571Y81767858D01*
X12807142Y81625000D01*
X12664285Y81553572D01*
X12592857Y81553572D01*
X12450000Y81625000D01*
X12378571Y81767858D01*
X12378571Y81982143D01*
X12450000Y82125001D01*
X13307142Y82767858D02*
X13378571Y82910715D01*
X13378571Y83196429D01*
X13307142Y83339286D01*
X13164285Y83410715D01*
X13092857Y83410715D01*
X12950000Y83339286D01*
X12878571Y83196429D01*
X12878571Y82982143D01*
X12807142Y82839286D01*
X12664285Y82767858D01*
X12592857Y82767858D01*
X12450000Y82839286D01*
X12378571Y82982143D01*
X12378571Y83196429D01*
X12450000Y83339286D01*
X20670000Y97346429D02*
X21670000Y97346429D01*
X21027142Y95846429D01*
X22884285Y96846429D02*
X22884285Y95846429D01*
X22527142Y97417858D02*
X22170000Y96346429D01*
X23098571Y96346429D01*
X24384285Y95846429D02*
X23670000Y95846429D01*
X23670000Y97346429D01*
X24670000Y97346429D02*
X25170000Y95846429D01*
X25670000Y97346429D01*
X27027142Y95989286D02*
X26955714Y95917858D01*
X26741428Y95846429D01*
X26598571Y95846429D01*
X26384285Y95917858D01*
X26241428Y96060715D01*
X26170000Y96203572D01*
X26098571Y96489286D01*
X26098571Y96703572D01*
X26170000Y96989286D01*
X26241428Y97132143D01*
X26384285Y97275000D01*
X26598571Y97346429D01*
X26741428Y97346429D01*
X26955714Y97275000D01*
X27027142Y97203572D01*
X27598571Y97203572D02*
X27670000Y97275000D01*
X27812857Y97346429D01*
X28170000Y97346429D01*
X28312857Y97275000D01*
X28384285Y97203572D01*
X28455714Y97060715D01*
X28455714Y96917858D01*
X28384285Y96703572D01*
X27527142Y95846429D01*
X28455714Y95846429D01*
X29741428Y96846429D02*
X29741428Y95846429D01*
X29384285Y97417858D02*
X29027142Y96346429D01*
X29955714Y96346429D01*
X31241428Y97346429D02*
X30527142Y97346429D01*
X30455714Y96632143D01*
X30527142Y96703572D01*
X30670000Y96775000D01*
X31027142Y96775000D01*
X31170000Y96703572D01*
X31241428Y96632143D01*
X31312857Y96489286D01*
X31312857Y96132143D01*
X31241428Y95989286D01*
X31170000Y95917858D01*
X31027142Y95846429D01*
X30670000Y95846429D01*
X30527142Y95917858D01*
X30455714Y95989286D01*
X31884285Y96275000D02*
X32598571Y96275000D01*
X31741428Y95846429D02*
X32241428Y97346429D01*
X32741428Y95846429D01*
X19991428Y93296429D02*
X19277142Y93296429D01*
X19277142Y94796429D01*
X21062857Y93367858D02*
X20920000Y93296429D01*
X20634285Y93296429D01*
X20491428Y93367858D01*
X20420000Y93510715D01*
X20420000Y94082143D01*
X20491428Y94225000D01*
X20634285Y94296429D01*
X20920000Y94296429D01*
X21062857Y94225000D01*
X21134285Y94082143D01*
X21134285Y93939286D01*
X20420000Y93796429D01*
X21634285Y94296429D02*
X21991428Y93296429D01*
X22348571Y94296429D01*
X23491428Y93367858D02*
X23348571Y93296429D01*
X23062857Y93296429D01*
X22920000Y93367858D01*
X22848571Y93510715D01*
X22848571Y94082143D01*
X22920000Y94225000D01*
X23062857Y94296429D01*
X23348571Y94296429D01*
X23491428Y94225000D01*
X23562857Y94082143D01*
X23562857Y93939286D01*
X22848571Y93796429D01*
X24420000Y93296429D02*
X24277142Y93367858D01*
X24205714Y93510715D01*
X24205714Y94796429D01*
X26062857Y93367858D02*
X26277142Y93296429D01*
X26634285Y93296429D01*
X26777142Y93367858D01*
X26848571Y93439286D01*
X26920000Y93582143D01*
X26920000Y93725000D01*
X26848571Y93867858D01*
X26777142Y93939286D01*
X26634285Y94010715D01*
X26348571Y94082143D01*
X26205714Y94153572D01*
X26134285Y94225000D01*
X26062857Y94367858D01*
X26062857Y94510715D01*
X26134285Y94653572D01*
X26205714Y94725000D01*
X26348571Y94796429D01*
X26705714Y94796429D01*
X26920000Y94725000D01*
X27562857Y93296429D02*
X27562857Y94796429D01*
X28205714Y93296429D02*
X28205714Y94082143D01*
X28134285Y94225000D01*
X27991428Y94296429D01*
X27777142Y94296429D01*
X27634285Y94225000D01*
X27562857Y94153572D01*
X28920000Y93296429D02*
X28920000Y94296429D01*
X28920000Y94796429D02*
X28848571Y94725000D01*
X28920000Y94653572D01*
X28991428Y94725000D01*
X28920000Y94796429D01*
X28920000Y94653572D01*
X29420000Y94296429D02*
X29991428Y94296429D01*
X29634285Y93296429D02*
X29634285Y94582143D01*
X29705714Y94725000D01*
X29848571Y94796429D01*
X29991428Y94796429D01*
X30277142Y94296429D02*
X30848571Y94296429D01*
X30491428Y94796429D02*
X30491428Y93510715D01*
X30562857Y93367858D01*
X30705714Y93296429D01*
X30848571Y93296429D01*
X31920000Y93367858D02*
X31777142Y93296429D01*
X31491428Y93296429D01*
X31348571Y93367858D01*
X31277142Y93510715D01*
X31277142Y94082143D01*
X31348571Y94225000D01*
X31491428Y94296429D01*
X31777142Y94296429D01*
X31920000Y94225000D01*
X31991428Y94082143D01*
X31991428Y93939286D01*
X31277142Y93796429D01*
X32634285Y93296429D02*
X32634285Y94296429D01*
X32634285Y94010715D02*
X32705714Y94153572D01*
X32777142Y94225000D01*
X32920000Y94296429D01*
X33062857Y94296429D01*
X33491428Y93367858D02*
X33634285Y93296429D01*
X33920000Y93296429D01*
X34062857Y93367858D01*
X34134285Y93510715D01*
X34134285Y93582143D01*
X34062857Y93725000D01*
X33920000Y93796429D01*
X33705714Y93796429D01*
X33562857Y93867858D01*
X33491428Y94010715D01*
X33491428Y94082143D01*
X33562857Y94225000D01*
X33705714Y94296429D01*
X33920000Y94296429D01*
X34062857Y94225000D01*
X51857142Y82736429D02*
X52857142Y81236429D01*
X52857142Y82736429D02*
X51857142Y81236429D01*
X54285714Y81379286D02*
X54214285Y81307858D01*
X54000000Y81236429D01*
X53857142Y81236429D01*
X53642857Y81307858D01*
X53500000Y81450715D01*
X53428571Y81593572D01*
X53357142Y81879286D01*
X53357142Y82093572D01*
X53428571Y82379286D01*
X53500000Y82522143D01*
X53642857Y82665000D01*
X53857142Y82736429D01*
X54000000Y82736429D01*
X54214285Y82665000D01*
X54285714Y82593572D01*
X55571428Y82736429D02*
X55285714Y82736429D01*
X55142857Y82665000D01*
X55071428Y82593572D01*
X54928571Y82379286D01*
X54857142Y82093572D01*
X54857142Y81522143D01*
X54928571Y81379286D01*
X55000000Y81307858D01*
X55142857Y81236429D01*
X55428571Y81236429D01*
X55571428Y81307858D01*
X55642857Y81379286D01*
X55714285Y81522143D01*
X55714285Y81879286D01*
X55642857Y82022143D01*
X55571428Y82093572D01*
X55428571Y82165000D01*
X55142857Y82165000D01*
X55000000Y82093572D01*
X54928571Y82022143D01*
X54857142Y81879286D01*
X56285714Y81307858D02*
X56500000Y81236429D01*
X56857142Y81236429D01*
X57000000Y81307858D01*
X57071428Y81379286D01*
X57142857Y81522143D01*
X57142857Y81665000D01*
X57071428Y81807858D01*
X57000000Y81879286D01*
X56857142Y81950715D01*
X56571428Y82022143D01*
X56428571Y82093572D01*
X56357142Y82165000D01*
X56285714Y82307858D01*
X56285714Y82450715D01*
X56357142Y82593572D01*
X56428571Y82665000D01*
X56571428Y82736429D01*
X56928571Y82736429D01*
X57142857Y82665000D01*
X58500000Y81236429D02*
X57785714Y81236429D01*
X57785714Y82736429D01*
X58857142Y82736429D02*
X59857142Y81236429D01*
X59857142Y82736429D02*
X58857142Y81236429D01*
X60500000Y81236429D02*
X60785714Y81236429D01*
X60928571Y81307858D01*
X61000000Y81379286D01*
X61142857Y81593572D01*
X61214285Y81879286D01*
X61214285Y82450715D01*
X61142857Y82593572D01*
X61071428Y82665000D01*
X60928571Y82736429D01*
X60642857Y82736429D01*
X60500000Y82665000D01*
X60428571Y82593572D01*
X60357142Y82450715D01*
X60357142Y82093572D01*
X60428571Y81950715D01*
X60500000Y81879286D01*
X60642857Y81807858D01*
X60928571Y81807858D01*
X61071428Y81879286D01*
X61142857Y81950715D01*
X61214285Y82093572D01*
X63857142Y81379286D02*
X63785714Y81307858D01*
X63571428Y81236429D01*
X63428571Y81236429D01*
X63214285Y81307858D01*
X63071428Y81450715D01*
X63000000Y81593572D01*
X62928571Y81879286D01*
X62928571Y82093572D01*
X63000000Y82379286D01*
X63071428Y82522143D01*
X63214285Y82665000D01*
X63428571Y82736429D01*
X63571428Y82736429D01*
X63785714Y82665000D01*
X63857142Y82593572D01*
X64714285Y81236429D02*
X64571428Y81307858D01*
X64500000Y81379286D01*
X64428571Y81522143D01*
X64428571Y81950715D01*
X64500000Y82093572D01*
X64571428Y82165000D01*
X64714285Y82236429D01*
X64928571Y82236429D01*
X65071428Y82165000D01*
X65142857Y82093572D01*
X65214285Y81950715D01*
X65214285Y81522143D01*
X65142857Y81379286D01*
X65071428Y81307858D01*
X64928571Y81236429D01*
X64714285Y81236429D01*
X65857142Y81236429D02*
X65857142Y82236429D01*
X65857142Y81950715D02*
X65928571Y82093572D01*
X66000000Y82165000D01*
X66142857Y82236429D01*
X66285714Y82236429D01*
X67357142Y81307858D02*
X67214285Y81236429D01*
X66928571Y81236429D01*
X66785714Y81307858D01*
X66714285Y81450715D01*
X66714285Y82022143D01*
X66785714Y82165000D01*
X66928571Y82236429D01*
X67214285Y82236429D01*
X67357142Y82165000D01*
X67428571Y82022143D01*
X67428571Y81879286D01*
X66714285Y81736429D01*
X69714285Y82022143D02*
X69928571Y81950715D01*
X70000000Y81879286D01*
X70071428Y81736429D01*
X70071428Y81522143D01*
X70000000Y81379286D01*
X69928571Y81307858D01*
X69785714Y81236429D01*
X69214285Y81236429D01*
X69214285Y82736429D01*
X69714285Y82736429D01*
X69857142Y82665000D01*
X69928571Y82593572D01*
X70000000Y82450715D01*
X70000000Y82307858D01*
X69928571Y82165000D01*
X69857142Y82093572D01*
X69714285Y82022143D01*
X69214285Y82022143D01*
X70928571Y81236429D02*
X70785714Y81307858D01*
X70714285Y81379286D01*
X70642857Y81522143D01*
X70642857Y81950715D01*
X70714285Y82093572D01*
X70785714Y82165000D01*
X70928571Y82236429D01*
X71142857Y82236429D01*
X71285714Y82165000D01*
X71357142Y82093572D01*
X71428571Y81950715D01*
X71428571Y81522143D01*
X71357142Y81379286D01*
X71285714Y81307858D01*
X71142857Y81236429D01*
X70928571Y81236429D01*
X72714285Y81236429D02*
X72714285Y82022143D01*
X72642857Y82165000D01*
X72500000Y82236429D01*
X72214285Y82236429D01*
X72071428Y82165000D01*
X72714285Y81307858D02*
X72571428Y81236429D01*
X72214285Y81236429D01*
X72071428Y81307858D01*
X72000000Y81450715D01*
X72000000Y81593572D01*
X72071428Y81736429D01*
X72214285Y81807858D01*
X72571428Y81807858D01*
X72714285Y81879286D01*
X73428571Y81236429D02*
X73428571Y82236429D01*
X73428571Y81950715D02*
X73500000Y82093572D01*
X73571428Y82165000D01*
X73714285Y82236429D01*
X73857142Y82236429D01*
X75000000Y81236429D02*
X75000000Y82736429D01*
X75000000Y81307858D02*
X74857142Y81236429D01*
X74571428Y81236429D01*
X74428571Y81307858D01*
X74357142Y81379286D01*
X74285714Y81522143D01*
X74285714Y81950715D01*
X74357142Y82093572D01*
X74428571Y82165000D01*
X74571428Y82236429D01*
X74857142Y82236429D01*
X75000000Y82165000D01*
X40607142Y16244286D02*
X40678571Y16458572D01*
X40678571Y16815715D01*
X40607142Y16958572D01*
X40535714Y17030000D01*
X40392857Y17101429D01*
X40250000Y17101429D01*
X40107142Y17030000D01*
X40035714Y16958572D01*
X39964285Y16815715D01*
X39892857Y16530000D01*
X39821428Y16387143D01*
X39750000Y16315715D01*
X39607142Y16244286D01*
X39464285Y16244286D01*
X39321428Y16315715D01*
X39250000Y16387143D01*
X39178571Y16530000D01*
X39178571Y16887143D01*
X39250000Y17101429D01*
X40678571Y17744286D02*
X39178571Y17744286D01*
X39178571Y18315715D01*
X39250000Y18458572D01*
X39321428Y18530000D01*
X39464285Y18601429D01*
X39678571Y18601429D01*
X39821428Y18530000D01*
X39892857Y18458572D01*
X39964285Y18315715D01*
X39964285Y17744286D01*
X40678571Y19244286D02*
X39178571Y19244286D01*
X43228571Y15994286D02*
X41728571Y15994286D01*
X41728571Y16351429D01*
X41800000Y16565715D01*
X41942857Y16708572D01*
X42085714Y16780000D01*
X42371428Y16851429D01*
X42585714Y16851429D01*
X42871428Y16780000D01*
X43014285Y16708572D01*
X43157142Y16565715D01*
X43228571Y16351429D01*
X43228571Y15994286D01*
X42800000Y17422858D02*
X42800000Y18137143D01*
X43228571Y17280000D02*
X41728571Y17780000D01*
X43228571Y18280000D01*
X43085714Y19637143D02*
X43157142Y19565715D01*
X43228571Y19351429D01*
X43228571Y19208572D01*
X43157142Y18994286D01*
X43014285Y18851429D01*
X42871428Y18780000D01*
X42585714Y18708572D01*
X42371428Y18708572D01*
X42085714Y18780000D01*
X41942857Y18851429D01*
X41800000Y18994286D01*
X41728571Y19208572D01*
X41728571Y19351429D01*
X41800000Y19565715D01*
X41871428Y19637143D01*
X93285714Y41231429D02*
X93285714Y42731429D01*
X93857142Y42731429D01*
X94000000Y42660000D01*
X94071428Y42588572D01*
X94142857Y42445715D01*
X94142857Y42231429D01*
X94071428Y42088572D01*
X94000000Y42017143D01*
X93857142Y41945715D01*
X93285714Y41945715D01*
X94785714Y41231429D02*
X94785714Y42731429D01*
X95285714Y41660000D01*
X95785714Y42731429D01*
X95785714Y41231429D01*
X97285714Y41231429D02*
X96428571Y41231429D01*
X96857142Y41231429D02*
X96857142Y42731429D01*
X96714285Y42517143D01*
X96571428Y42374286D01*
X96428571Y42302858D01*
X93285714Y82506429D02*
X93285714Y84006429D01*
X93857142Y84006429D01*
X94000000Y83935000D01*
X94071428Y83863572D01*
X94142857Y83720715D01*
X94142857Y83506429D01*
X94071428Y83363572D01*
X94000000Y83292143D01*
X93857142Y83220715D01*
X93285714Y83220715D01*
X94785714Y82506429D02*
X94785714Y84006429D01*
X95285714Y82935000D01*
X95785714Y84006429D01*
X95785714Y82506429D01*
X96785714Y84006429D02*
X96928571Y84006429D01*
X97071428Y83935000D01*
X97142857Y83863572D01*
X97214285Y83720715D01*
X97285714Y83435000D01*
X97285714Y83077858D01*
X97214285Y82792143D01*
X97142857Y82649286D01*
X97071428Y82577858D01*
X96928571Y82506429D01*
X96785714Y82506429D01*
X96642857Y82577858D01*
X96571428Y82649286D01*
X96500000Y82792143D01*
X96428571Y83077858D01*
X96428571Y83435000D01*
X96500000Y83720715D01*
X96571428Y83863572D01*
X96642857Y83935000D01*
X96785714Y84006429D01*
D12*
X85090000Y24130000D02*
X85090000Y98425000D01*
X36830000Y98425000D02*
X36830000Y24130000D01*
D10*
X66687142Y97341429D02*
X66687142Y96127143D01*
X66758571Y95984286D01*
X66830000Y95912858D01*
X66972857Y95841429D01*
X67258571Y95841429D01*
X67401428Y95912858D01*
X67472857Y95984286D01*
X67544285Y96127143D01*
X67544285Y97341429D01*
X68187142Y95912858D02*
X68401428Y95841429D01*
X68758571Y95841429D01*
X68901428Y95912858D01*
X68972857Y95984286D01*
X69044285Y96127143D01*
X69044285Y96270000D01*
X68972857Y96412858D01*
X68901428Y96484286D01*
X68758571Y96555715D01*
X68472857Y96627143D01*
X68330000Y96698572D01*
X68258571Y96770000D01*
X68187142Y96912858D01*
X68187142Y97055715D01*
X68258571Y97198572D01*
X68330000Y97270000D01*
X68472857Y97341429D01*
X68830000Y97341429D01*
X69044285Y97270000D01*
X70187142Y96627143D02*
X70401428Y96555715D01*
X70472857Y96484286D01*
X70544285Y96341429D01*
X70544285Y96127143D01*
X70472857Y95984286D01*
X70401428Y95912858D01*
X70258571Y95841429D01*
X69687142Y95841429D01*
X69687142Y97341429D01*
X70187142Y97341429D01*
X70330000Y97270000D01*
X70401428Y97198572D01*
X70472857Y97055715D01*
X70472857Y96912858D01*
X70401428Y96770000D01*
X70330000Y96698572D01*
X70187142Y96627143D01*
X69687142Y96627143D01*
X92936428Y35516429D02*
X92436428Y36230715D01*
X92079285Y35516429D02*
X92079285Y37016429D01*
X92650714Y37016429D01*
X92793571Y36945000D01*
X92865000Y36873572D01*
X92936428Y36730715D01*
X92936428Y36516429D01*
X92865000Y36373572D01*
X92793571Y36302143D01*
X92650714Y36230715D01*
X92079285Y36230715D01*
X93579285Y35516429D02*
X93579285Y36516429D01*
X93579285Y37016429D02*
X93507857Y36945000D01*
X93579285Y36873572D01*
X93650714Y36945000D01*
X93579285Y37016429D01*
X93579285Y36873572D01*
X94936428Y36516429D02*
X94936428Y35302143D01*
X94865000Y35159286D01*
X94793571Y35087858D01*
X94650714Y35016429D01*
X94436428Y35016429D01*
X94293571Y35087858D01*
X94936428Y35587858D02*
X94793571Y35516429D01*
X94507857Y35516429D01*
X94365000Y35587858D01*
X94293571Y35659286D01*
X94222142Y35802143D01*
X94222142Y36230715D01*
X94293571Y36373572D01*
X94365000Y36445000D01*
X94507857Y36516429D01*
X94793571Y36516429D01*
X94936428Y36445000D01*
X95650714Y35516429D02*
X95650714Y37016429D01*
X96293571Y35516429D02*
X96293571Y36302143D01*
X96222142Y36445000D01*
X96079285Y36516429D01*
X95865000Y36516429D01*
X95722142Y36445000D01*
X95650714Y36373572D01*
X96793571Y36516429D02*
X97365000Y36516429D01*
X97007857Y37016429D02*
X97007857Y35730715D01*
X97079285Y35587858D01*
X97222142Y35516429D01*
X97365000Y35516429D01*
X94214285Y8211429D02*
X93500000Y8211429D01*
X93500000Y9711429D01*
X95285714Y8282858D02*
X95142857Y8211429D01*
X94857142Y8211429D01*
X94714285Y8282858D01*
X94642857Y8425715D01*
X94642857Y8997143D01*
X94714285Y9140000D01*
X94857142Y9211429D01*
X95142857Y9211429D01*
X95285714Y9140000D01*
X95357142Y8997143D01*
X95357142Y8854286D01*
X94642857Y8711429D01*
X95785714Y9211429D02*
X96357142Y9211429D01*
X96000000Y8211429D02*
X96000000Y9497143D01*
X96071428Y9640000D01*
X96214285Y9711429D01*
X96357142Y9711429D01*
X96642857Y9211429D02*
X97214285Y9211429D01*
X96857142Y9711429D02*
X96857142Y8425715D01*
X96928571Y8282858D01*
X97071428Y8211429D01*
X97214285Y8211429D01*
X86122142Y96071429D02*
X86122142Y94857143D01*
X86193571Y94714286D01*
X86265000Y94642858D01*
X86407857Y94571429D01*
X86693571Y94571429D01*
X86836428Y94642858D01*
X86907857Y94714286D01*
X86979285Y94857143D01*
X86979285Y96071429D01*
X87622142Y94642858D02*
X87765000Y94571429D01*
X88050714Y94571429D01*
X88193571Y94642858D01*
X88265000Y94785715D01*
X88265000Y94857143D01*
X88193571Y95000000D01*
X88050714Y95071429D01*
X87836428Y95071429D01*
X87693571Y95142858D01*
X87622142Y95285715D01*
X87622142Y95357143D01*
X87693571Y95500000D01*
X87836428Y95571429D01*
X88050714Y95571429D01*
X88193571Y95500000D01*
X89479285Y94642858D02*
X89336428Y94571429D01*
X89050714Y94571429D01*
X88907857Y94642858D01*
X88836428Y94785715D01*
X88836428Y95357143D01*
X88907857Y95500000D01*
X89050714Y95571429D01*
X89336428Y95571429D01*
X89479285Y95500000D01*
X89550714Y95357143D01*
X89550714Y95214286D01*
X88836428Y95071429D01*
X90193571Y94571429D02*
X90193571Y95571429D01*
X90193571Y95285715D02*
X90265000Y95428572D01*
X90336428Y95500000D01*
X90479285Y95571429D01*
X90622142Y95571429D01*
X85935714Y83776429D02*
X85935714Y85276429D01*
X86507142Y85276429D01*
X86650000Y85205000D01*
X86721428Y85133572D01*
X86792857Y84990715D01*
X86792857Y84776429D01*
X86721428Y84633572D01*
X86650000Y84562143D01*
X86507142Y84490715D01*
X85935714Y84490715D01*
X87650000Y83776429D02*
X87507142Y83847858D01*
X87435714Y83919286D01*
X87364285Y84062143D01*
X87364285Y84490715D01*
X87435714Y84633572D01*
X87507142Y84705000D01*
X87650000Y84776429D01*
X87864285Y84776429D01*
X88007142Y84705000D01*
X88078571Y84633572D01*
X88150000Y84490715D01*
X88150000Y84062143D01*
X88078571Y83919286D01*
X88007142Y83847858D01*
X87864285Y83776429D01*
X87650000Y83776429D01*
X88650000Y84776429D02*
X88935714Y83776429D01*
X89221428Y84490715D01*
X89507142Y83776429D01*
X89792857Y84776429D01*
X90935714Y83847858D02*
X90792857Y83776429D01*
X90507142Y83776429D01*
X90364285Y83847858D01*
X90292857Y83990715D01*
X90292857Y84562143D01*
X90364285Y84705000D01*
X90507142Y84776429D01*
X90792857Y84776429D01*
X90935714Y84705000D01*
X91007142Y84562143D01*
X91007142Y84419286D01*
X90292857Y84276429D01*
X91650000Y83776429D02*
X91650000Y84776429D01*
X91650000Y84490715D02*
X91721428Y84633572D01*
X91792857Y84705000D01*
X91935714Y84776429D01*
X92078571Y84776429D01*
D12*
X64770000Y98425000D02*
X64770000Y94615000D01*
X72390000Y94615000D02*
X64770000Y94615000D01*
X72390000Y94615000D02*
X72390000Y98425000D01*
X85090000Y24130000D02*
X36830000Y24130000D01*
X36830000Y98425000D02*
X85090000Y98425000D01*
D13*
G04 #@! TO.C,J13*
X1210000Y81855000D02*
X3870000Y81855000D01*
X1210000Y86995000D02*
X1210000Y81855000D01*
X3870000Y86995000D02*
X3870000Y81855000D01*
X1210000Y86995000D02*
X3870000Y86995000D01*
X1210000Y88265000D02*
X1210000Y89595000D01*
X1210000Y89595000D02*
X2540000Y89595000D01*
G04 #@! TO.C,J14*
X53340000Y94555000D02*
X53340000Y97215000D01*
X53340000Y94555000D02*
X55940000Y94555000D01*
X55940000Y94555000D02*
X55940000Y97215000D01*
X53340000Y97215000D02*
X55940000Y97215000D01*
X50740000Y97215000D02*
X52070000Y97215000D01*
X50740000Y95885000D02*
X50740000Y97215000D01*
G04 #@! TO.C,J1*
X8890000Y29464000D02*
X8382000Y29210000D01*
X8890000Y28956000D02*
X8890000Y29464000D01*
X8382000Y29210000D02*
X8890000Y28956000D01*
X7750000Y18260000D02*
X650000Y18260000D01*
X7750000Y80760000D02*
X550000Y80760000D01*
X550000Y80760000D02*
X-9600000Y78210000D01*
X-9600000Y78210000D02*
X-9600000Y74260000D01*
X-9600000Y74260000D02*
X-5150000Y72960000D01*
X-5150000Y72960000D02*
X-5150000Y26110000D01*
X-5150000Y26110000D02*
X-9600000Y24860000D01*
X-9600000Y24860000D02*
X-9600000Y20860000D01*
X-9600000Y20860000D02*
X650000Y18260000D01*
X7740000Y80760000D02*
X7740000Y18300000D01*
G04 #@! TO.C,C6*
X57400000Y59075000D02*
X57400000Y61915000D01*
X57400000Y61915000D02*
X53360000Y61915000D01*
X53360000Y61915000D02*
X53360000Y59075000D01*
X53360000Y59075000D02*
X57400000Y59075000D01*
X58090000Y60495000D02*
X57400000Y60495000D01*
X52670000Y60495000D02*
X53360000Y60495000D01*
G04 #@! TO.C,C5*
X69090000Y60495000D02*
X68400000Y60495000D01*
X63670000Y60495000D02*
X64360000Y60495000D01*
X68400000Y61915000D02*
X64360000Y61915000D01*
X68400000Y59075000D02*
X68400000Y61915000D01*
X64360000Y59075000D02*
X68400000Y59075000D01*
X64360000Y61915000D02*
X64360000Y59075000D01*
G04 #@! TO.C,C9*
X59155000Y8890000D02*
G75*
G03X59155000Y8890000I-2620000J0D01*
G01*
X56535000Y11470000D02*
X56535000Y6310000D01*
X56575000Y11470000D02*
X56575000Y6310000D01*
X56615000Y11469000D02*
X56615000Y6311000D01*
X56655000Y11468000D02*
X56655000Y6312000D01*
X56695000Y11466000D02*
X56695000Y6314000D01*
X56735000Y11463000D02*
X56735000Y6317000D01*
X56775000Y11459000D02*
X56775000Y9930000D01*
X56775000Y7850000D02*
X56775000Y6321000D01*
X56815000Y11455000D02*
X56815000Y9930000D01*
X56815000Y7850000D02*
X56815000Y6325000D01*
X56855000Y11451000D02*
X56855000Y9930000D01*
X56855000Y7850000D02*
X56855000Y6329000D01*
X56895000Y11446000D02*
X56895000Y9930000D01*
X56895000Y7850000D02*
X56895000Y6334000D01*
X56935000Y11440000D02*
X56935000Y9930000D01*
X56935000Y7850000D02*
X56935000Y6340000D01*
X56975000Y11433000D02*
X56975000Y9930000D01*
X56975000Y7850000D02*
X56975000Y6347000D01*
X57015000Y11426000D02*
X57015000Y9930000D01*
X57015000Y7850000D02*
X57015000Y6354000D01*
X57055000Y11418000D02*
X57055000Y9930000D01*
X57055000Y7850000D02*
X57055000Y6362000D01*
X57095000Y11410000D02*
X57095000Y9930000D01*
X57095000Y7850000D02*
X57095000Y6370000D01*
X57135000Y11401000D02*
X57135000Y9930000D01*
X57135000Y7850000D02*
X57135000Y6379000D01*
X57175000Y11391000D02*
X57175000Y9930000D01*
X57175000Y7850000D02*
X57175000Y6389000D01*
X57215000Y11381000D02*
X57215000Y9930000D01*
X57215000Y7850000D02*
X57215000Y6399000D01*
X57256000Y11370000D02*
X57256000Y9930000D01*
X57256000Y7850000D02*
X57256000Y6410000D01*
X57296000Y11358000D02*
X57296000Y9930000D01*
X57296000Y7850000D02*
X57296000Y6422000D01*
X57336000Y11345000D02*
X57336000Y9930000D01*
X57336000Y7850000D02*
X57336000Y6435000D01*
X57376000Y11332000D02*
X57376000Y9930000D01*
X57376000Y7850000D02*
X57376000Y6448000D01*
X57416000Y11318000D02*
X57416000Y9930000D01*
X57416000Y7850000D02*
X57416000Y6462000D01*
X57456000Y11304000D02*
X57456000Y9930000D01*
X57456000Y7850000D02*
X57456000Y6476000D01*
X57496000Y11288000D02*
X57496000Y9930000D01*
X57496000Y7850000D02*
X57496000Y6492000D01*
X57536000Y11272000D02*
X57536000Y9930000D01*
X57536000Y7850000D02*
X57536000Y6508000D01*
X57576000Y11255000D02*
X57576000Y9930000D01*
X57576000Y7850000D02*
X57576000Y6525000D01*
X57616000Y11238000D02*
X57616000Y9930000D01*
X57616000Y7850000D02*
X57616000Y6542000D01*
X57656000Y11219000D02*
X57656000Y9930000D01*
X57656000Y7850000D02*
X57656000Y6561000D01*
X57696000Y11200000D02*
X57696000Y9930000D01*
X57696000Y7850000D02*
X57696000Y6580000D01*
X57736000Y11180000D02*
X57736000Y9930000D01*
X57736000Y7850000D02*
X57736000Y6600000D01*
X57776000Y11158000D02*
X57776000Y9930000D01*
X57776000Y7850000D02*
X57776000Y6622000D01*
X57816000Y11137000D02*
X57816000Y9930000D01*
X57816000Y7850000D02*
X57816000Y6643000D01*
X57856000Y11114000D02*
X57856000Y9930000D01*
X57856000Y7850000D02*
X57856000Y6666000D01*
X57896000Y11090000D02*
X57896000Y9930000D01*
X57896000Y7850000D02*
X57896000Y6690000D01*
X57936000Y11065000D02*
X57936000Y9930000D01*
X57936000Y7850000D02*
X57936000Y6715000D01*
X57976000Y11039000D02*
X57976000Y9930000D01*
X57976000Y7850000D02*
X57976000Y6741000D01*
X58016000Y11012000D02*
X58016000Y9930000D01*
X58016000Y7850000D02*
X58016000Y6768000D01*
X58056000Y10985000D02*
X58056000Y9930000D01*
X58056000Y7850000D02*
X58056000Y6795000D01*
X58096000Y10955000D02*
X58096000Y9930000D01*
X58096000Y7850000D02*
X58096000Y6825000D01*
X58136000Y10925000D02*
X58136000Y9930000D01*
X58136000Y7850000D02*
X58136000Y6855000D01*
X58176000Y10894000D02*
X58176000Y9930000D01*
X58176000Y7850000D02*
X58176000Y6886000D01*
X58216000Y10861000D02*
X58216000Y9930000D01*
X58216000Y7850000D02*
X58216000Y6919000D01*
X58256000Y10827000D02*
X58256000Y9930000D01*
X58256000Y7850000D02*
X58256000Y6953000D01*
X58296000Y10791000D02*
X58296000Y9930000D01*
X58296000Y7850000D02*
X58296000Y6989000D01*
X58336000Y10754000D02*
X58336000Y9930000D01*
X58336000Y7850000D02*
X58336000Y7026000D01*
X58376000Y10716000D02*
X58376000Y9930000D01*
X58376000Y7850000D02*
X58376000Y7064000D01*
X58416000Y10675000D02*
X58416000Y9930000D01*
X58416000Y7850000D02*
X58416000Y7105000D01*
X58456000Y10633000D02*
X58456000Y9930000D01*
X58456000Y7850000D02*
X58456000Y7147000D01*
X58496000Y10589000D02*
X58496000Y9930000D01*
X58496000Y7850000D02*
X58496000Y7191000D01*
X58536000Y10543000D02*
X58536000Y9930000D01*
X58536000Y7850000D02*
X58536000Y7237000D01*
X58576000Y10495000D02*
X58576000Y9930000D01*
X58576000Y7850000D02*
X58576000Y7285000D01*
X58616000Y10444000D02*
X58616000Y9930000D01*
X58616000Y7850000D02*
X58616000Y7336000D01*
X58656000Y10390000D02*
X58656000Y9930000D01*
X58656000Y7850000D02*
X58656000Y7390000D01*
X58696000Y10333000D02*
X58696000Y9930000D01*
X58696000Y7850000D02*
X58696000Y7447000D01*
X58736000Y10273000D02*
X58736000Y9930000D01*
X58736000Y7850000D02*
X58736000Y7507000D01*
X58776000Y10209000D02*
X58776000Y9930000D01*
X58776000Y7850000D02*
X58776000Y7571000D01*
X58816000Y10141000D02*
X58816000Y9930000D01*
X58816000Y7850000D02*
X58816000Y7639000D01*
X58856000Y10068000D02*
X58856000Y7712000D01*
X58896000Y9988000D02*
X58896000Y7792000D01*
X58936000Y9901000D02*
X58936000Y7879000D01*
X58976000Y9805000D02*
X58976000Y7975000D01*
X59016000Y9695000D02*
X59016000Y8085000D01*
X59056000Y9567000D02*
X59056000Y8213000D01*
X59096000Y9408000D02*
X59096000Y8372000D01*
X59136000Y9174000D02*
X59136000Y8606000D01*
X53730225Y10365000D02*
X54230225Y10365000D01*
X53980225Y10615000D02*
X53980225Y10115000D01*
G04 #@! TO.C,R10*
X57690000Y33755000D02*
X57690000Y31015000D01*
X57690000Y31015000D02*
X64230000Y31015000D01*
X64230000Y31015000D02*
X64230000Y33755000D01*
X64230000Y33755000D02*
X57690000Y33755000D01*
X56920000Y32385000D02*
X57690000Y32385000D01*
X65000000Y32385000D02*
X64230000Y32385000D01*
G04 #@! TO.C,R11*
X65000000Y34925000D02*
X64230000Y34925000D01*
X56920000Y34925000D02*
X57690000Y34925000D01*
X64230000Y36295000D02*
X57690000Y36295000D01*
X64230000Y33555000D02*
X64230000Y36295000D01*
X57690000Y33555000D02*
X64230000Y33555000D01*
X57690000Y36295000D02*
X57690000Y33555000D01*
G04 #@! TO.C,C4*
X59840000Y19720000D02*
X57000000Y19720000D01*
X57000000Y19720000D02*
X57000000Y15680000D01*
X57000000Y15680000D02*
X59840000Y15680000D01*
X59840000Y15680000D02*
X59840000Y19720000D01*
X58420000Y21660000D02*
X58420000Y19720000D01*
X58420000Y13740000D02*
X58420000Y15680000D01*
G04 #@! TO.C,C7*
X91400000Y1400000D02*
X85660000Y1400000D01*
X91400000Y8840000D02*
X85660000Y8840000D01*
X85660000Y8840000D02*
X85660000Y1400000D01*
X91400000Y8840000D02*
X91400000Y1400000D01*
G04 #@! TO.C,C8*
X91400000Y42495000D02*
X91400000Y35055000D01*
X85660000Y42495000D02*
X85660000Y35055000D01*
X91400000Y42495000D02*
X85660000Y42495000D01*
X91400000Y35055000D02*
X85660000Y35055000D01*
G04 #@! TO.C,J12*
X52637193Y-2547018D02*
X52637193Y6082982D01*
X52519098Y-2547018D02*
X52519098Y6082982D01*
X52401003Y-2547018D02*
X52401003Y6082982D01*
X52282908Y-2547018D02*
X52282908Y6082982D01*
X52164813Y-2547018D02*
X52164813Y6082982D01*
X52046718Y-2547018D02*
X52046718Y6082982D01*
X51928623Y-2547018D02*
X51928623Y6082982D01*
X51810528Y-2547018D02*
X51810528Y6082982D01*
X51692433Y-2547018D02*
X51692433Y6082982D01*
X51574338Y-2547018D02*
X51574338Y6082982D01*
X51456243Y-2547018D02*
X51456243Y6082982D01*
X51338148Y-2547018D02*
X51338148Y6082982D01*
X51220053Y-2547018D02*
X51220053Y6082982D01*
X51101958Y-2547018D02*
X51101958Y6082982D01*
X50983863Y-2547018D02*
X50983863Y6082982D01*
X50865768Y-2547018D02*
X50865768Y6082982D01*
X50747673Y-2547018D02*
X50747673Y6082982D01*
X50629578Y-2547018D02*
X50629578Y6082982D01*
X50511483Y-2547018D02*
X50511483Y6082982D01*
X50393388Y-2547018D02*
X50393388Y6082982D01*
X50275293Y-2547018D02*
X50275293Y6082982D01*
X38375000Y6160000D02*
X38375000Y6570000D01*
X38375000Y8670000D02*
X38375000Y9050000D01*
X39095000Y6160000D02*
X39095000Y6570000D01*
X39095000Y8670000D02*
X39095000Y9050000D01*
X40915000Y6160000D02*
X40915000Y6570000D01*
X40915000Y8670000D02*
X40915000Y9110000D01*
X41635000Y6160000D02*
X41635000Y6570000D01*
X41635000Y8670000D02*
X41635000Y9110000D01*
X43455000Y6160000D02*
X43455000Y6570000D01*
X43455000Y8670000D02*
X43455000Y9110000D01*
X44175000Y6160000D02*
X44175000Y6570000D01*
X44175000Y8670000D02*
X44175000Y9110000D01*
X45995000Y6160000D02*
X45995000Y6570000D01*
X45995000Y8670000D02*
X45995000Y9110000D01*
X46715000Y6160000D02*
X46715000Y6570000D01*
X46715000Y8670000D02*
X46715000Y9110000D01*
X48535000Y6160000D02*
X48535000Y6570000D01*
X48535000Y8670000D02*
X48535000Y9110000D01*
X49255000Y6160000D02*
X49255000Y6570000D01*
X49255000Y8670000D02*
X49255000Y9110000D01*
X51075000Y6160000D02*
X51075000Y6570000D01*
X51075000Y8670000D02*
X51075000Y9110000D01*
X51795000Y6160000D02*
X51795000Y6570000D01*
X51795000Y8670000D02*
X51795000Y9110000D01*
X50157193Y-2547018D02*
X50157193Y6082982D01*
X47617193Y-2547018D02*
X47617193Y6082982D01*
X45077193Y-2547018D02*
X45077193Y6082982D01*
X42537193Y-2547018D02*
X42537193Y6082982D01*
X39997193Y-2547018D02*
X39997193Y6082982D01*
X52757193Y-2547018D02*
X52757193Y6082982D01*
X52757193Y6082982D02*
X37397193Y6082982D01*
X37397193Y-2547018D02*
X37397193Y6082982D01*
X52757193Y-2547018D02*
X37397193Y-2547018D01*
X37405000Y11270000D02*
X38735000Y11270000D01*
X37405000Y10160000D02*
X37405000Y11270000D01*
G04 #@! TO.C,U5*
X56635000Y12640000D02*
X56635000Y22920000D01*
X46235000Y12640000D02*
X56635000Y12640000D01*
X46235000Y22920000D02*
X46235000Y12640000D01*
X56635000Y22920000D02*
X46235000Y22920000D01*
X56575000Y15130000D02*
X56575000Y16780000D01*
X46295000Y15130000D02*
X56575000Y15130000D01*
X46295000Y20430000D02*
X46295000Y15130000D01*
X56575000Y20430000D02*
X46295000Y20430000D01*
X56575000Y18780000D02*
X56575000Y20430000D01*
X56575000Y16780000D02*
G75*
G02X56575000Y18780000I0J1000000D01*
G01*
G04 #@! TO.C,J11*
X87570000Y65465000D02*
X88900000Y65465000D01*
X87570000Y64135000D02*
X87570000Y65465000D01*
X90170000Y65465000D02*
X92770000Y65465000D01*
X90170000Y62865000D02*
X90170000Y65465000D01*
X87570000Y62865000D02*
X90170000Y62865000D01*
X92770000Y65465000D02*
X92770000Y60265000D01*
X87570000Y62865000D02*
X87570000Y60265000D01*
X87570000Y60265000D02*
X92770000Y60265000D01*
G04 #@! TO.C,J10*
X43755000Y28575000D02*
X43755000Y29905000D01*
X43755000Y29905000D02*
X45085000Y29905000D01*
X43755000Y27305000D02*
X46355000Y27305000D01*
X46355000Y27305000D02*
X46355000Y29905000D01*
X46355000Y29905000D02*
X59115000Y29905000D01*
X59115000Y24705000D02*
X59115000Y29905000D01*
X43755000Y24705000D02*
X59115000Y24705000D01*
X43755000Y24705000D02*
X43755000Y27305000D01*
G04 #@! TO.C,SW2*
X82315000Y5255000D02*
X82315000Y6755000D01*
X81065000Y9255000D02*
X76565000Y9255000D01*
X75315000Y6755000D02*
X75315000Y5255000D01*
X76565000Y2755000D02*
X81065000Y2755000D01*
G04 #@! TO.C,SW1*
X70885000Y5255000D02*
X70885000Y6755000D01*
X69635000Y9255000D02*
X65135000Y9255000D01*
X63885000Y6755000D02*
X63885000Y5255000D01*
X65135000Y2755000D02*
X69635000Y2755000D01*
G04 #@! TO.C,R8*
X61595000Y21185000D02*
X61595000Y20415000D01*
X61595000Y13105000D02*
X61595000Y13875000D01*
X60225000Y20415000D02*
X60225000Y13875000D01*
X62965000Y20415000D02*
X60225000Y20415000D01*
X62965000Y13875000D02*
X62965000Y20415000D01*
X60225000Y13875000D02*
X62965000Y13875000D01*
G04 #@! TO.C,R9*
X84455000Y21185000D02*
X84455000Y20415000D01*
X84455000Y13105000D02*
X84455000Y13875000D01*
X83085000Y20415000D02*
X83085000Y13875000D01*
X85825000Y20415000D02*
X83085000Y20415000D01*
X85825000Y13875000D02*
X85825000Y20415000D01*
X83085000Y13875000D02*
X85825000Y13875000D01*
G04 #@! TO.C,J8*
X1210000Y13275000D02*
X1210000Y14605000D01*
X2540000Y13275000D02*
X1210000Y13275000D01*
X3810000Y13275000D02*
X3810000Y15935000D01*
X3810000Y15935000D02*
X6410000Y15935000D01*
X3810000Y13275000D02*
X6410000Y13275000D01*
X6410000Y13275000D02*
X6410000Y15935000D01*
G04 #@! TO.C,J9*
X7560000Y13275000D02*
X7560000Y14605000D01*
X8890000Y13275000D02*
X7560000Y13275000D01*
X10160000Y13275000D02*
X10160000Y15935000D01*
X10160000Y15935000D02*
X12760000Y15935000D01*
X10160000Y13275000D02*
X12760000Y13275000D01*
X12760000Y13275000D02*
X12760000Y15935000D01*
G04 #@! TO.C,R7*
X33655000Y42315000D02*
X33655000Y43085000D01*
X33655000Y50395000D02*
X33655000Y49625000D01*
X35025000Y43085000D02*
X35025000Y49625000D01*
X32285000Y43085000D02*
X35025000Y43085000D01*
X32285000Y49625000D02*
X32285000Y43085000D01*
X35025000Y49625000D02*
X32285000Y49625000D01*
G04 #@! TO.C,R3*
X17550000Y3810000D02*
X18320000Y3810000D01*
X25630000Y3810000D02*
X24860000Y3810000D01*
X18320000Y2440000D02*
X24860000Y2440000D01*
X18320000Y5180000D02*
X18320000Y2440000D01*
X24860000Y5180000D02*
X18320000Y5180000D01*
X24860000Y2440000D02*
X24860000Y5180000D01*
G04 #@! TO.C,Q1*
X9621555Y5637684D02*
G75*
G03X10650000Y1360000I1808445J-1827684D01*
G01*
X13241875Y5651741D02*
G75*
G02X12250000Y1360000I-1811875J-1841741D01*
G01*
X13230000Y5660000D02*
X9630000Y5660000D01*
G04 #@! TO.C,Q2*
X9621555Y10717684D02*
G75*
G03X10650000Y6440000I1808445J-1827684D01*
G01*
X13241875Y10731741D02*
G75*
G02X12250000Y6440000I-1811875J-1841741D01*
G01*
X13230000Y10740000D02*
X9630000Y10740000D01*
G04 #@! TO.C,J4*
X88900000Y66615000D02*
X87790000Y66615000D01*
X87790000Y66615000D02*
X87790000Y67945000D01*
X101607018Y81967193D02*
X101607018Y66607193D01*
X101607018Y66607193D02*
X92977018Y66607193D01*
X92977018Y81967193D02*
X92977018Y66607193D01*
X101607018Y81967193D02*
X92977018Y81967193D01*
X101607018Y69207193D02*
X92977018Y69207193D01*
X101607018Y71747193D02*
X92977018Y71747193D01*
X101607018Y74287193D02*
X92977018Y74287193D01*
X101607018Y76827193D02*
X92977018Y76827193D01*
X101607018Y79367193D02*
X92977018Y79367193D01*
X90390000Y81005000D02*
X89950000Y81005000D01*
X92900000Y81005000D02*
X92490000Y81005000D01*
X90390000Y80285000D02*
X89950000Y80285000D01*
X92900000Y80285000D02*
X92490000Y80285000D01*
X90390000Y78465000D02*
X89950000Y78465000D01*
X92900000Y78465000D02*
X92490000Y78465000D01*
X90390000Y77745000D02*
X89950000Y77745000D01*
X92900000Y77745000D02*
X92490000Y77745000D01*
X90390000Y75925000D02*
X89950000Y75925000D01*
X92900000Y75925000D02*
X92490000Y75925000D01*
X90390000Y75205000D02*
X89950000Y75205000D01*
X92900000Y75205000D02*
X92490000Y75205000D01*
X90390000Y73385000D02*
X89950000Y73385000D01*
X92900000Y73385000D02*
X92490000Y73385000D01*
X90390000Y72665000D02*
X89950000Y72665000D01*
X92900000Y72665000D02*
X92490000Y72665000D01*
X90390000Y70845000D02*
X89950000Y70845000D01*
X92900000Y70845000D02*
X92490000Y70845000D01*
X90390000Y70125000D02*
X89950000Y70125000D01*
X92900000Y70125000D02*
X92490000Y70125000D01*
X90390000Y68305000D02*
X90010000Y68305000D01*
X92900000Y68305000D02*
X92490000Y68305000D01*
X90390000Y67585000D02*
X90010000Y67585000D01*
X92900000Y67585000D02*
X92490000Y67585000D01*
X101607018Y79485293D02*
X92977018Y79485293D01*
X101607018Y79603388D02*
X92977018Y79603388D01*
X101607018Y79721483D02*
X92977018Y79721483D01*
X101607018Y79839578D02*
X92977018Y79839578D01*
X101607018Y79957673D02*
X92977018Y79957673D01*
X101607018Y80075768D02*
X92977018Y80075768D01*
X101607018Y80193863D02*
X92977018Y80193863D01*
X101607018Y80311958D02*
X92977018Y80311958D01*
X101607018Y80430053D02*
X92977018Y80430053D01*
X101607018Y80548148D02*
X92977018Y80548148D01*
X101607018Y80666243D02*
X92977018Y80666243D01*
X101607018Y80784338D02*
X92977018Y80784338D01*
X101607018Y80902433D02*
X92977018Y80902433D01*
X101607018Y81020528D02*
X92977018Y81020528D01*
X101607018Y81138623D02*
X92977018Y81138623D01*
X101607018Y81256718D02*
X92977018Y81256718D01*
X101607018Y81374813D02*
X92977018Y81374813D01*
X101607018Y81492908D02*
X92977018Y81492908D01*
X101607018Y81611003D02*
X92977018Y81611003D01*
X101607018Y81729098D02*
X92977018Y81729098D01*
X101607018Y81847193D02*
X92977018Y81847193D01*
G04 #@! TO.C,J5*
X88900000Y43755000D02*
X87790000Y43755000D01*
X87790000Y43755000D02*
X87790000Y45085000D01*
X101607018Y59107193D02*
X101607018Y43747193D01*
X101607018Y43747193D02*
X92977018Y43747193D01*
X92977018Y59107193D02*
X92977018Y43747193D01*
X101607018Y59107193D02*
X92977018Y59107193D01*
X101607018Y46347193D02*
X92977018Y46347193D01*
X101607018Y48887193D02*
X92977018Y48887193D01*
X101607018Y51427193D02*
X92977018Y51427193D01*
X101607018Y53967193D02*
X92977018Y53967193D01*
X101607018Y56507193D02*
X92977018Y56507193D01*
X90390000Y58145000D02*
X89950000Y58145000D01*
X92900000Y58145000D02*
X92490000Y58145000D01*
X90390000Y57425000D02*
X89950000Y57425000D01*
X92900000Y57425000D02*
X92490000Y57425000D01*
X90390000Y55605000D02*
X89950000Y55605000D01*
X92900000Y55605000D02*
X92490000Y55605000D01*
X90390000Y54885000D02*
X89950000Y54885000D01*
X92900000Y54885000D02*
X92490000Y54885000D01*
X90390000Y53065000D02*
X89950000Y53065000D01*
X92900000Y53065000D02*
X92490000Y53065000D01*
X90390000Y52345000D02*
X89950000Y52345000D01*
X92900000Y52345000D02*
X92490000Y52345000D01*
X90390000Y50525000D02*
X89950000Y50525000D01*
X92900000Y50525000D02*
X92490000Y50525000D01*
X90390000Y49805000D02*
X89950000Y49805000D01*
X92900000Y49805000D02*
X92490000Y49805000D01*
X90390000Y47985000D02*
X89950000Y47985000D01*
X92900000Y47985000D02*
X92490000Y47985000D01*
X90390000Y47265000D02*
X89950000Y47265000D01*
X92900000Y47265000D02*
X92490000Y47265000D01*
X90390000Y45445000D02*
X90010000Y45445000D01*
X92900000Y45445000D02*
X92490000Y45445000D01*
X90390000Y44725000D02*
X90010000Y44725000D01*
X92900000Y44725000D02*
X92490000Y44725000D01*
X101607018Y56625293D02*
X92977018Y56625293D01*
X101607018Y56743388D02*
X92977018Y56743388D01*
X101607018Y56861483D02*
X92977018Y56861483D01*
X101607018Y56979578D02*
X92977018Y56979578D01*
X101607018Y57097673D02*
X92977018Y57097673D01*
X101607018Y57215768D02*
X92977018Y57215768D01*
X101607018Y57333863D02*
X92977018Y57333863D01*
X101607018Y57451958D02*
X92977018Y57451958D01*
X101607018Y57570053D02*
X92977018Y57570053D01*
X101607018Y57688148D02*
X92977018Y57688148D01*
X101607018Y57806243D02*
X92977018Y57806243D01*
X101607018Y57924338D02*
X92977018Y57924338D01*
X101607018Y58042433D02*
X92977018Y58042433D01*
X101607018Y58160528D02*
X92977018Y58160528D01*
X101607018Y58278623D02*
X92977018Y58278623D01*
X101607018Y58396718D02*
X92977018Y58396718D01*
X101607018Y58514813D02*
X92977018Y58514813D01*
X101607018Y58632908D02*
X92977018Y58632908D01*
X101607018Y58751003D02*
X92977018Y58751003D01*
X101607018Y58869098D02*
X92977018Y58869098D01*
X101607018Y58987193D02*
X92977018Y58987193D01*
G04 #@! TO.C,D1*
X91095000Y93155000D02*
X91095000Y93311000D01*
X91095000Y90839000D02*
X91095000Y90995000D01*
X88493870Y93154837D02*
G75*
G02X90575961Y93155000I1041130J-1079837D01*
G01*
X88493870Y90995163D02*
G75*
G03X90575961Y90995000I1041130J1079837D01*
G01*
X87862665Y93153608D02*
G75*
G02X91095000Y93310516I1672335J-1078608D01*
G01*
X87862665Y90996392D02*
G75*
G03X91095000Y90839484I1672335J1078608D01*
G01*
G04 #@! TO.C,D2*
X91095000Y88710000D02*
X91095000Y88866000D01*
X91095000Y86394000D02*
X91095000Y86550000D01*
X88493870Y88709837D02*
G75*
G02X90575961Y88710000I1041130J-1079837D01*
G01*
X88493870Y86550163D02*
G75*
G03X90575961Y86550000I1041130J1079837D01*
G01*
X87862665Y88708608D02*
G75*
G02X91095000Y88865516I1672335J-1078608D01*
G01*
X87862665Y86551392D02*
G75*
G03X91095000Y86394484I1672335J1078608D01*
G01*
G04 #@! TO.C,R6*
X74700000Y87630000D02*
X75470000Y87630000D01*
X82780000Y87630000D02*
X82010000Y87630000D01*
X75470000Y86260000D02*
X82010000Y86260000D01*
X75470000Y89000000D02*
X75470000Y86260000D01*
X82010000Y89000000D02*
X75470000Y89000000D01*
X82010000Y86260000D02*
X82010000Y89000000D01*
G04 #@! TO.C,R5*
X74700000Y92075000D02*
X75470000Y92075000D01*
X82780000Y92075000D02*
X82010000Y92075000D01*
X75470000Y90705000D02*
X82010000Y90705000D01*
X75470000Y93445000D02*
X75470000Y90705000D01*
X82010000Y93445000D02*
X75470000Y93445000D01*
X82010000Y90705000D02*
X82010000Y93445000D01*
G04 #@! TO.C,RN1*
X15110000Y15875000D02*
X17910000Y15875000D01*
X15110000Y36365000D02*
X15110000Y13165000D01*
X17910000Y36365000D02*
X15110000Y36365000D01*
X17910000Y13165000D02*
X17910000Y36365000D01*
X15110000Y13165000D02*
X17910000Y13165000D01*
G04 #@! TO.C,RN2*
X15110000Y43815000D02*
X17910000Y43815000D01*
X15110000Y64305000D02*
X15110000Y41105000D01*
X17910000Y64305000D02*
X15110000Y64305000D01*
X17910000Y41105000D02*
X17910000Y64305000D01*
X15110000Y41105000D02*
X17910000Y41105000D01*
G04 #@! TO.C,RN3*
X15110000Y71755000D02*
X17910000Y71755000D01*
X15110000Y92245000D02*
X15110000Y69045000D01*
X17910000Y92245000D02*
X15110000Y92245000D01*
X17910000Y69045000D02*
X17910000Y92245000D01*
X15110000Y69045000D02*
X17910000Y69045000D01*
G04 #@! TO.C,RN4*
X17650000Y15875000D02*
X20450000Y15875000D01*
X17650000Y36365000D02*
X17650000Y13165000D01*
X20450000Y36365000D02*
X17650000Y36365000D01*
X20450000Y13165000D02*
X20450000Y36365000D01*
X17650000Y13165000D02*
X20450000Y13165000D01*
G04 #@! TO.C,RN5*
X17650000Y43815000D02*
X20450000Y43815000D01*
X17650000Y64305000D02*
X17650000Y41105000D01*
X20450000Y64305000D02*
X17650000Y64305000D01*
X20450000Y41105000D02*
X20450000Y64305000D01*
X17650000Y41105000D02*
X20450000Y41105000D01*
G04 #@! TO.C,RN6*
X17650000Y71755000D02*
X20450000Y71755000D01*
X17650000Y92245000D02*
X17650000Y69045000D01*
X20450000Y92245000D02*
X17650000Y92245000D01*
X20450000Y69045000D02*
X20450000Y92245000D01*
X17650000Y69045000D02*
X20450000Y69045000D01*
G04 #@! TO.C,J2*
X40640000Y84515000D02*
X41970000Y84515000D01*
X41970000Y84515000D02*
X41970000Y83185000D01*
X39370000Y84515000D02*
X39370000Y81915000D01*
X39370000Y81915000D02*
X41970000Y81915000D01*
X41970000Y81915000D02*
X41970000Y33595000D01*
X36770000Y33595000D02*
X41970000Y33595000D01*
X36770000Y84515000D02*
X36770000Y33595000D01*
X36770000Y84515000D02*
X39370000Y84515000D01*
G04 #@! TO.C,J3*
X81280000Y33595000D02*
X79950000Y33595000D01*
X79950000Y33595000D02*
X79950000Y34925000D01*
X82550000Y33595000D02*
X82550000Y36195000D01*
X82550000Y36195000D02*
X79950000Y36195000D01*
X79950000Y36195000D02*
X79950000Y84515000D01*
X85150000Y84515000D02*
X79950000Y84515000D01*
X85150000Y33595000D02*
X85150000Y84515000D01*
X85150000Y33595000D02*
X82550000Y33595000D01*
G04 #@! TO.C,U3*
X21530000Y10675000D02*
X31810000Y10675000D01*
X21530000Y36315000D02*
X21530000Y10675000D01*
X31810000Y36315000D02*
X21530000Y36315000D01*
X31810000Y10675000D02*
X31810000Y36315000D01*
X24020000Y10735000D02*
X25670000Y10735000D01*
X24020000Y36255000D02*
X24020000Y10735000D01*
X29320000Y36255000D02*
X24020000Y36255000D01*
X29320000Y10735000D02*
X29320000Y36255000D01*
X27670000Y10735000D02*
X29320000Y10735000D01*
X25670000Y10735000D02*
G75*
G02X27670000Y10735000I1000000J0D01*
G01*
G04 #@! TO.C,U2*
X21530000Y38615000D02*
X31810000Y38615000D01*
X21530000Y64255000D02*
X21530000Y38615000D01*
X31810000Y64255000D02*
X21530000Y64255000D01*
X31810000Y38615000D02*
X31810000Y64255000D01*
X24020000Y38675000D02*
X25670000Y38675000D01*
X24020000Y64195000D02*
X24020000Y38675000D01*
X29320000Y64195000D02*
X24020000Y64195000D01*
X29320000Y38675000D02*
X29320000Y64195000D01*
X27670000Y38675000D02*
X29320000Y38675000D01*
X25670000Y38675000D02*
G75*
G02X27670000Y38675000I1000000J0D01*
G01*
G04 #@! TO.C,U1*
X21530000Y66555000D02*
X31810000Y66555000D01*
X21530000Y92195000D02*
X21530000Y66555000D01*
X31810000Y92195000D02*
X21530000Y92195000D01*
X31810000Y66555000D02*
X31810000Y92195000D01*
X24020000Y66615000D02*
X25670000Y66615000D01*
X24020000Y92135000D02*
X24020000Y66615000D01*
X29320000Y92135000D02*
X24020000Y92135000D01*
X29320000Y66615000D02*
X29320000Y92135000D01*
X27670000Y66615000D02*
X29320000Y66615000D01*
X25670000Y66615000D02*
G75*
G02X27670000Y66615000I1000000J0D01*
G01*
G04 #@! TO.C,R1*
X65000000Y40005000D02*
X64230000Y40005000D01*
X56920000Y40005000D02*
X57690000Y40005000D01*
X64230000Y41375000D02*
X57690000Y41375000D01*
X64230000Y38635000D02*
X64230000Y41375000D01*
X57690000Y38635000D02*
X64230000Y38635000D01*
X57690000Y41375000D02*
X57690000Y38635000D01*
G04 #@! TO.C,R2*
X65000000Y42545000D02*
X64230000Y42545000D01*
X56920000Y42545000D02*
X57690000Y42545000D01*
X64230000Y43915000D02*
X57690000Y43915000D01*
X64230000Y41175000D02*
X64230000Y43915000D01*
X57690000Y41175000D02*
X64230000Y41175000D01*
X57690000Y43915000D02*
X57690000Y41175000D01*
G04 #@! TO.C,R4*
X17550000Y7620000D02*
X18320000Y7620000D01*
X25630000Y7620000D02*
X24860000Y7620000D01*
X18320000Y6250000D02*
X24860000Y6250000D01*
X18320000Y8990000D02*
X18320000Y6250000D01*
X24860000Y8990000D02*
X18320000Y8990000D01*
X24860000Y6250000D02*
X24860000Y8990000D01*
D14*
G04 #@! TO.C,J7*
X109520000Y25210000D02*
X100520000Y25210000D01*
X109520000Y33210000D02*
X109520000Y25210000D01*
X100520000Y33210000D02*
X109520000Y33210000D01*
X86520000Y34210000D02*
X100520000Y34210000D01*
X86520000Y24210000D02*
X86520000Y34210000D01*
X100520000Y24210000D02*
X86520000Y24210000D01*
X100520000Y34210000D02*
X100520000Y24210000D01*
G04 #@! TO.C,J6*
X109520000Y11875000D02*
X100520000Y11875000D01*
X109520000Y19875000D02*
X109520000Y11875000D01*
X100520000Y19875000D02*
X109520000Y19875000D01*
X86520000Y20875000D02*
X100520000Y20875000D01*
X86520000Y10875000D02*
X86520000Y20875000D01*
X100520000Y10875000D02*
X86520000Y10875000D01*
X100520000Y20875000D02*
X100520000Y10875000D01*
G04 #@! TO.C,J13*
X1730476Y91142620D02*
X1730476Y90428334D01*
X1682857Y90285477D01*
X1587619Y90190239D01*
X1444761Y90142620D01*
X1349523Y90142620D01*
X2730476Y90142620D02*
X2159047Y90142620D01*
X2444761Y90142620D02*
X2444761Y91142620D01*
X2349523Y90999762D01*
X2254285Y90904524D01*
X2159047Y90856905D01*
X3063809Y91142620D02*
X3682857Y91142620D01*
X3349523Y90761667D01*
X3492380Y90761667D01*
X3587619Y90714048D01*
X3635238Y90666429D01*
X3682857Y90571191D01*
X3682857Y90333096D01*
X3635238Y90237858D01*
X3587619Y90190239D01*
X3492380Y90142620D01*
X3206666Y90142620D01*
X3111428Y90190239D01*
X3063809Y90237858D01*
G04 #@! TO.C,J14*
X56975476Y96432620D02*
X56975476Y95718334D01*
X56927857Y95575477D01*
X56832619Y95480239D01*
X56689761Y95432620D01*
X56594523Y95432620D01*
X57975476Y95432620D02*
X57404047Y95432620D01*
X57689761Y95432620D02*
X57689761Y96432620D01*
X57594523Y96289762D01*
X57499285Y96194524D01*
X57404047Y96146905D01*
X58832619Y96099286D02*
X58832619Y95432620D01*
X58594523Y96480239D02*
X58356428Y95765953D01*
X58975476Y95765953D01*
G04 #@! TO.C,J1*
X5000666Y79795620D02*
X5000666Y79081334D01*
X4953047Y78938477D01*
X4857809Y78843239D01*
X4714952Y78795620D01*
X4619714Y78795620D01*
X6000666Y78795620D02*
X5429238Y78795620D01*
X5714952Y78795620D02*
X5714952Y79795620D01*
X5619714Y79652762D01*
X5524476Y79557524D01*
X5429238Y79509905D01*
G04 #@! TO.C,C6*
X55213333Y59947358D02*
X55165714Y59899739D01*
X55022857Y59852120D01*
X54927619Y59852120D01*
X54784761Y59899739D01*
X54689523Y59994977D01*
X54641904Y60090215D01*
X54594285Y60280691D01*
X54594285Y60423548D01*
X54641904Y60614024D01*
X54689523Y60709262D01*
X54784761Y60804500D01*
X54927619Y60852120D01*
X55022857Y60852120D01*
X55165714Y60804500D01*
X55213333Y60756881D01*
X56070476Y60852120D02*
X55880000Y60852120D01*
X55784761Y60804500D01*
X55737142Y60756881D01*
X55641904Y60614024D01*
X55594285Y60423548D01*
X55594285Y60042596D01*
X55641904Y59947358D01*
X55689523Y59899739D01*
X55784761Y59852120D01*
X55975238Y59852120D01*
X56070476Y59899739D01*
X56118095Y59947358D01*
X56165714Y60042596D01*
X56165714Y60280691D01*
X56118095Y60375929D01*
X56070476Y60423548D01*
X55975238Y60471167D01*
X55784761Y60471167D01*
X55689523Y60423548D01*
X55641904Y60375929D01*
X55594285Y60280691D01*
G04 #@! TO.C,C5*
X66213333Y60074358D02*
X66165714Y60026739D01*
X66022857Y59979120D01*
X65927619Y59979120D01*
X65784761Y60026739D01*
X65689523Y60121977D01*
X65641904Y60217215D01*
X65594285Y60407691D01*
X65594285Y60550548D01*
X65641904Y60741024D01*
X65689523Y60836262D01*
X65784761Y60931500D01*
X65927619Y60979120D01*
X66022857Y60979120D01*
X66165714Y60931500D01*
X66213333Y60883881D01*
X67118095Y60979120D02*
X66641904Y60979120D01*
X66594285Y60502929D01*
X66641904Y60550548D01*
X66737142Y60598167D01*
X66975238Y60598167D01*
X67070476Y60550548D01*
X67118095Y60502929D01*
X67165714Y60407691D01*
X67165714Y60169596D01*
X67118095Y60074358D01*
X67070476Y60026739D01*
X66975238Y59979120D01*
X66737142Y59979120D01*
X66641904Y60026739D01*
X66594285Y60074358D01*
G04 #@! TO.C,C9*
X56368333Y4937858D02*
X56320714Y4890239D01*
X56177857Y4842620D01*
X56082619Y4842620D01*
X55939761Y4890239D01*
X55844523Y4985477D01*
X55796904Y5080715D01*
X55749285Y5271191D01*
X55749285Y5414048D01*
X55796904Y5604524D01*
X55844523Y5699762D01*
X55939761Y5795000D01*
X56082619Y5842620D01*
X56177857Y5842620D01*
X56320714Y5795000D01*
X56368333Y5747381D01*
X56844523Y4842620D02*
X57035000Y4842620D01*
X57130238Y4890239D01*
X57177857Y4937858D01*
X57273095Y5080715D01*
X57320714Y5271191D01*
X57320714Y5652143D01*
X57273095Y5747381D01*
X57225476Y5795000D01*
X57130238Y5842620D01*
X56939761Y5842620D01*
X56844523Y5795000D01*
X56796904Y5747381D01*
X56749285Y5652143D01*
X56749285Y5414048D01*
X56796904Y5318810D01*
X56844523Y5271191D01*
X56939761Y5223572D01*
X57130238Y5223572D01*
X57225476Y5271191D01*
X57273095Y5318810D01*
X57320714Y5414048D01*
G04 #@! TO.C,R10*
X60317142Y31932620D02*
X59983809Y32408810D01*
X59745714Y31932620D02*
X59745714Y32932620D01*
X60126666Y32932620D01*
X60221904Y32885000D01*
X60269523Y32837381D01*
X60317142Y32742143D01*
X60317142Y32599286D01*
X60269523Y32504048D01*
X60221904Y32456429D01*
X60126666Y32408810D01*
X59745714Y32408810D01*
X61269523Y31932620D02*
X60698095Y31932620D01*
X60983809Y31932620D02*
X60983809Y32932620D01*
X60888571Y32789762D01*
X60793333Y32694524D01*
X60698095Y32646905D01*
X61888571Y32932620D02*
X61983809Y32932620D01*
X62079047Y32885000D01*
X62126666Y32837381D01*
X62174285Y32742143D01*
X62221904Y32551667D01*
X62221904Y32313572D01*
X62174285Y32123096D01*
X62126666Y32027858D01*
X62079047Y31980239D01*
X61983809Y31932620D01*
X61888571Y31932620D01*
X61793333Y31980239D01*
X61745714Y32027858D01*
X61698095Y32123096D01*
X61650476Y32313572D01*
X61650476Y32551667D01*
X61698095Y32742143D01*
X61745714Y32837381D01*
X61793333Y32885000D01*
X61888571Y32932620D01*
G04 #@! TO.C,R11*
X60317142Y34602621D02*
X59983809Y35078811D01*
X59745714Y34602621D02*
X59745714Y35602621D01*
X60126666Y35602621D01*
X60221904Y35555001D01*
X60269523Y35507382D01*
X60317142Y35412144D01*
X60317142Y35269287D01*
X60269523Y35174049D01*
X60221904Y35126430D01*
X60126666Y35078811D01*
X59745714Y35078811D01*
X61269523Y34602621D02*
X60698095Y34602621D01*
X60983809Y34602621D02*
X60983809Y35602621D01*
X60888571Y35459763D01*
X60793333Y35364525D01*
X60698095Y35316906D01*
X62221904Y34602621D02*
X61650476Y34602621D01*
X61936190Y34602621D02*
X61936190Y35602621D01*
X61840952Y35459763D01*
X61745714Y35364525D01*
X61650476Y35316906D01*
G04 #@! TO.C,C4*
X58777142Y17533334D02*
X58824761Y17485715D01*
X58872380Y17342858D01*
X58872380Y17247620D01*
X58824761Y17104762D01*
X58729523Y17009524D01*
X58634285Y16961905D01*
X58443809Y16914286D01*
X58300952Y16914286D01*
X58110476Y16961905D01*
X58015238Y17009524D01*
X57920000Y17104762D01*
X57872380Y17247620D01*
X57872380Y17342858D01*
X57920000Y17485715D01*
X57967619Y17533334D01*
X58205714Y18390477D02*
X58872380Y18390477D01*
X57824761Y18152381D02*
X58539047Y17914286D01*
X58539047Y18533334D01*
G04 #@! TO.C,C7*
X88887142Y4913334D02*
X88934761Y4865715D01*
X88982380Y4722858D01*
X88982380Y4627620D01*
X88934761Y4484762D01*
X88839523Y4389524D01*
X88744285Y4341905D01*
X88553809Y4294286D01*
X88410952Y4294286D01*
X88220476Y4341905D01*
X88125238Y4389524D01*
X88030000Y4484762D01*
X87982380Y4627620D01*
X87982380Y4722858D01*
X88030000Y4865715D01*
X88077619Y4913334D01*
X87982380Y5246667D02*
X87982380Y5913334D01*
X88982380Y5484762D01*
G04 #@! TO.C,C8*
X88887142Y38568334D02*
X88934761Y38520715D01*
X88982380Y38377858D01*
X88982380Y38282620D01*
X88934761Y38139762D01*
X88839523Y38044524D01*
X88744285Y37996905D01*
X88553809Y37949286D01*
X88410952Y37949286D01*
X88220476Y37996905D01*
X88125238Y38044524D01*
X88030000Y38139762D01*
X87982380Y38282620D01*
X87982380Y38377858D01*
X88030000Y38520715D01*
X88077619Y38568334D01*
X88410952Y39139762D02*
X88363333Y39044524D01*
X88315714Y38996905D01*
X88220476Y38949286D01*
X88172857Y38949286D01*
X88077619Y38996905D01*
X88030000Y39044524D01*
X87982380Y39139762D01*
X87982380Y39330239D01*
X88030000Y39425477D01*
X88077619Y39473096D01*
X88172857Y39520715D01*
X88220476Y39520715D01*
X88315714Y39473096D01*
X88363333Y39425477D01*
X88410952Y39330239D01*
X88410952Y39139762D01*
X88458571Y39044524D01*
X88506190Y38996905D01*
X88601428Y38949286D01*
X88791904Y38949286D01*
X88887142Y38996905D01*
X88934761Y39044524D01*
X88982380Y39139762D01*
X88982380Y39330239D01*
X88934761Y39425477D01*
X88887142Y39473096D01*
X88791904Y39520715D01*
X88601428Y39520715D01*
X88506190Y39473096D01*
X88458571Y39425477D01*
X88410952Y39330239D01*
G04 #@! TO.C,J12*
X38187380Y2365477D02*
X38901666Y2365477D01*
X39044523Y2317858D01*
X39139761Y2222620D01*
X39187380Y2079762D01*
X39187380Y1984524D01*
X39187380Y3365477D02*
X39187380Y2794048D01*
X39187380Y3079762D02*
X38187380Y3079762D01*
X38330238Y2984524D01*
X38425476Y2889286D01*
X38473095Y2794048D01*
X38282619Y3746429D02*
X38235000Y3794048D01*
X38187380Y3889286D01*
X38187380Y4127381D01*
X38235000Y4222620D01*
X38282619Y4270239D01*
X38377857Y4317858D01*
X38473095Y4317858D01*
X38615952Y4270239D01*
X39187380Y3698810D01*
X39187380Y4317858D01*
G04 #@! TO.C,U5*
X44537380Y17018096D02*
X45346904Y17018096D01*
X45442142Y17065715D01*
X45489761Y17113334D01*
X45537380Y17208572D01*
X45537380Y17399048D01*
X45489761Y17494286D01*
X45442142Y17541905D01*
X45346904Y17589524D01*
X44537380Y17589524D01*
X44537380Y18541905D02*
X44537380Y18065715D01*
X45013571Y18018096D01*
X44965952Y18065715D01*
X44918333Y18160953D01*
X44918333Y18399048D01*
X44965952Y18494286D01*
X45013571Y18541905D01*
X45108809Y18589524D01*
X45346904Y18589524D01*
X45442142Y18541905D01*
X45489761Y18494286D01*
X45537380Y18399048D01*
X45537380Y18160953D01*
X45489761Y18065715D01*
X45442142Y18018096D01*
G04 #@! TO.C,J11*
X89360476Y60237620D02*
X89360476Y59523334D01*
X89312857Y59380477D01*
X89217619Y59285239D01*
X89074761Y59237620D01*
X88979523Y59237620D01*
X90360476Y59237620D02*
X89789047Y59237620D01*
X90074761Y59237620D02*
X90074761Y60237620D01*
X89979523Y60094762D01*
X89884285Y59999524D01*
X89789047Y59951905D01*
X91312857Y59237620D02*
X90741428Y59237620D01*
X91027142Y59237620D02*
X91027142Y60237620D01*
X90931904Y60094762D01*
X90836666Y59999524D01*
X90741428Y59951905D01*
G04 #@! TO.C,J10*
X41767380Y26495477D02*
X42481666Y26495477D01*
X42624523Y26447858D01*
X42719761Y26352620D01*
X42767380Y26209762D01*
X42767380Y26114524D01*
X42767380Y27495477D02*
X42767380Y26924048D01*
X42767380Y27209762D02*
X41767380Y27209762D01*
X41910238Y27114524D01*
X42005476Y27019286D01*
X42053095Y26924048D01*
X41767380Y28114524D02*
X41767380Y28209762D01*
X41815000Y28305000D01*
X41862619Y28352620D01*
X41957857Y28400239D01*
X42148333Y28447858D01*
X42386428Y28447858D01*
X42576904Y28400239D01*
X42672142Y28352620D01*
X42719761Y28305000D01*
X42767380Y28209762D01*
X42767380Y28114524D01*
X42719761Y28019286D01*
X42672142Y27971667D01*
X42576904Y27924048D01*
X42386428Y27876429D01*
X42148333Y27876429D01*
X41957857Y27924048D01*
X41862619Y27971667D01*
X41815000Y28019286D01*
X41767380Y28114524D01*
G04 #@! TO.C,SW2*
X77406666Y865239D02*
X77549523Y817620D01*
X77787619Y817620D01*
X77882857Y865239D01*
X77930476Y912858D01*
X77978095Y1008096D01*
X77978095Y1103334D01*
X77930476Y1198572D01*
X77882857Y1246191D01*
X77787619Y1293810D01*
X77597142Y1341429D01*
X77501904Y1389048D01*
X77454285Y1436667D01*
X77406666Y1531905D01*
X77406666Y1627143D01*
X77454285Y1722381D01*
X77501904Y1770000D01*
X77597142Y1817620D01*
X77835238Y1817620D01*
X77978095Y1770000D01*
X78311428Y1817620D02*
X78549523Y817620D01*
X78740000Y1531905D01*
X78930476Y817620D01*
X79168571Y1817620D01*
X79501904Y1722381D02*
X79549523Y1770000D01*
X79644761Y1817620D01*
X79882857Y1817620D01*
X79978095Y1770000D01*
X80025714Y1722381D01*
X80073333Y1627143D01*
X80073333Y1531905D01*
X80025714Y1389048D01*
X79454285Y817620D01*
X80073333Y817620D01*
G04 #@! TO.C,SW1*
X65976666Y865239D02*
X66119523Y817620D01*
X66357619Y817620D01*
X66452857Y865239D01*
X66500476Y912858D01*
X66548095Y1008096D01*
X66548095Y1103334D01*
X66500476Y1198572D01*
X66452857Y1246191D01*
X66357619Y1293810D01*
X66167142Y1341429D01*
X66071904Y1389048D01*
X66024285Y1436667D01*
X65976666Y1531905D01*
X65976666Y1627143D01*
X66024285Y1722381D01*
X66071904Y1770000D01*
X66167142Y1817620D01*
X66405238Y1817620D01*
X66548095Y1770000D01*
X66881428Y1817620D02*
X67119523Y817620D01*
X67310000Y1531905D01*
X67500476Y817620D01*
X67738571Y1817620D01*
X68643333Y817620D02*
X68071904Y817620D01*
X68357619Y817620D02*
X68357619Y1817620D01*
X68262380Y1674762D01*
X68167142Y1579524D01*
X68071904Y1531905D01*
G04 #@! TO.C,R8*
X62047380Y16978334D02*
X61571190Y16645000D01*
X62047380Y16406905D02*
X61047380Y16406905D01*
X61047380Y16787858D01*
X61095000Y16883096D01*
X61142619Y16930715D01*
X61237857Y16978334D01*
X61380714Y16978334D01*
X61475952Y16930715D01*
X61523571Y16883096D01*
X61571190Y16787858D01*
X61571190Y16406905D01*
X61475952Y17549762D02*
X61428333Y17454524D01*
X61380714Y17406905D01*
X61285476Y17359286D01*
X61237857Y17359286D01*
X61142619Y17406905D01*
X61095000Y17454524D01*
X61047380Y17549762D01*
X61047380Y17740239D01*
X61095000Y17835477D01*
X61142619Y17883096D01*
X61237857Y17930715D01*
X61285476Y17930715D01*
X61380714Y17883096D01*
X61428333Y17835477D01*
X61475952Y17740239D01*
X61475952Y17549762D01*
X61523571Y17454524D01*
X61571190Y17406905D01*
X61666428Y17359286D01*
X61856904Y17359286D01*
X61952142Y17406905D01*
X61999761Y17454524D01*
X62047380Y17549762D01*
X62047380Y17740239D01*
X61999761Y17835477D01*
X61952142Y17883096D01*
X61856904Y17930715D01*
X61666428Y17930715D01*
X61571190Y17883096D01*
X61523571Y17835477D01*
X61475952Y17740239D01*
G04 #@! TO.C,R9*
X84907380Y16978334D02*
X84431190Y16645000D01*
X84907380Y16406905D02*
X83907380Y16406905D01*
X83907380Y16787858D01*
X83955000Y16883096D01*
X84002619Y16930715D01*
X84097857Y16978334D01*
X84240714Y16978334D01*
X84335952Y16930715D01*
X84383571Y16883096D01*
X84431190Y16787858D01*
X84431190Y16406905D01*
X84907380Y17454524D02*
X84907380Y17645000D01*
X84859761Y17740239D01*
X84812142Y17787858D01*
X84669285Y17883096D01*
X84478809Y17930715D01*
X84097857Y17930715D01*
X84002619Y17883096D01*
X83955000Y17835477D01*
X83907380Y17740239D01*
X83907380Y17549762D01*
X83955000Y17454524D01*
X84002619Y17406905D01*
X84097857Y17359286D01*
X84335952Y17359286D01*
X84431190Y17406905D01*
X84478809Y17454524D01*
X84526428Y17549762D01*
X84526428Y17740239D01*
X84478809Y17835477D01*
X84431190Y17883096D01*
X84335952Y17930715D01*
G04 #@! TO.C,J8*
X3476666Y17692620D02*
X3476666Y16978334D01*
X3429047Y16835477D01*
X3333809Y16740239D01*
X3190952Y16692620D01*
X3095714Y16692620D01*
X4095714Y17264048D02*
X4000476Y17311667D01*
X3952857Y17359286D01*
X3905238Y17454524D01*
X3905238Y17502143D01*
X3952857Y17597381D01*
X4000476Y17645000D01*
X4095714Y17692620D01*
X4286190Y17692620D01*
X4381428Y17645000D01*
X4429047Y17597381D01*
X4476666Y17502143D01*
X4476666Y17454524D01*
X4429047Y17359286D01*
X4381428Y17311667D01*
X4286190Y17264048D01*
X4095714Y17264048D01*
X4000476Y17216429D01*
X3952857Y17168810D01*
X3905238Y17073572D01*
X3905238Y16883096D01*
X3952857Y16787858D01*
X4000476Y16740239D01*
X4095714Y16692620D01*
X4286190Y16692620D01*
X4381428Y16740239D01*
X4429047Y16787858D01*
X4476666Y16883096D01*
X4476666Y17073572D01*
X4429047Y17168810D01*
X4381428Y17216429D01*
X4286190Y17264048D01*
G04 #@! TO.C,J9*
X9826666Y17692620D02*
X9826666Y16978334D01*
X9779047Y16835477D01*
X9683809Y16740239D01*
X9540952Y16692620D01*
X9445714Y16692620D01*
X10350476Y16692620D02*
X10540952Y16692620D01*
X10636190Y16740239D01*
X10683809Y16787858D01*
X10779047Y16930715D01*
X10826666Y17121191D01*
X10826666Y17502143D01*
X10779047Y17597381D01*
X10731428Y17645000D01*
X10636190Y17692620D01*
X10445714Y17692620D01*
X10350476Y17645000D01*
X10302857Y17597381D01*
X10255238Y17502143D01*
X10255238Y17264048D01*
X10302857Y17168810D01*
X10350476Y17121191D01*
X10445714Y17073572D01*
X10636190Y17073572D01*
X10731428Y17121191D01*
X10779047Y17168810D01*
X10826666Y17264048D01*
G04 #@! TO.C,R7*
X34107380Y46188334D02*
X33631190Y45855000D01*
X34107380Y45616905D02*
X33107380Y45616905D01*
X33107380Y45997858D01*
X33155000Y46093096D01*
X33202619Y46140715D01*
X33297857Y46188334D01*
X33440714Y46188334D01*
X33535952Y46140715D01*
X33583571Y46093096D01*
X33631190Y45997858D01*
X33631190Y45616905D01*
X33107380Y46521667D02*
X33107380Y47188334D01*
X34107380Y46759762D01*
G04 #@! TO.C,R3*
X21423333Y3357620D02*
X21090000Y3833810D01*
X20851904Y3357620D02*
X20851904Y4357620D01*
X21232857Y4357620D01*
X21328095Y4310000D01*
X21375714Y4262381D01*
X21423333Y4167143D01*
X21423333Y4024286D01*
X21375714Y3929048D01*
X21328095Y3881429D01*
X21232857Y3833810D01*
X20851904Y3833810D01*
X21756666Y4357620D02*
X22375714Y4357620D01*
X22042380Y3976667D01*
X22185238Y3976667D01*
X22280476Y3929048D01*
X22328095Y3881429D01*
X22375714Y3786191D01*
X22375714Y3548096D01*
X22328095Y3452858D01*
X22280476Y3405239D01*
X22185238Y3357620D01*
X21899523Y3357620D01*
X21804285Y3405239D01*
X21756666Y3452858D01*
G04 #@! TO.C,Q1*
X8159761Y1357381D02*
X8064523Y1405000D01*
X7969285Y1500239D01*
X7826428Y1643096D01*
X7731190Y1690715D01*
X7635952Y1690715D01*
X7683571Y1452620D02*
X7588333Y1500239D01*
X7493095Y1595477D01*
X7445476Y1785953D01*
X7445476Y2119286D01*
X7493095Y2309762D01*
X7588333Y2405000D01*
X7683571Y2452620D01*
X7874047Y2452620D01*
X7969285Y2405000D01*
X8064523Y2309762D01*
X8112142Y2119286D01*
X8112142Y1785953D01*
X8064523Y1595477D01*
X7969285Y1500239D01*
X7874047Y1452620D01*
X7683571Y1452620D01*
X9064523Y1452620D02*
X8493095Y1452620D01*
X8778809Y1452620D02*
X8778809Y2452620D01*
X8683571Y2309762D01*
X8588333Y2214524D01*
X8493095Y2166905D01*
G04 #@! TO.C,Q2*
X8159761Y6437381D02*
X8064523Y6485000D01*
X7969285Y6580239D01*
X7826428Y6723096D01*
X7731190Y6770715D01*
X7635952Y6770715D01*
X7683571Y6532620D02*
X7588333Y6580239D01*
X7493095Y6675477D01*
X7445476Y6865953D01*
X7445476Y7199286D01*
X7493095Y7389762D01*
X7588333Y7485000D01*
X7683571Y7532620D01*
X7874047Y7532620D01*
X7969285Y7485000D01*
X8064523Y7389762D01*
X8112142Y7199286D01*
X8112142Y6865953D01*
X8064523Y6675477D01*
X7969285Y6580239D01*
X7874047Y6532620D01*
X7683571Y6532620D01*
X8493095Y7437381D02*
X8540714Y7485000D01*
X8635952Y7532620D01*
X8874047Y7532620D01*
X8969285Y7485000D01*
X9016904Y7437381D01*
X9064523Y7342143D01*
X9064523Y7246905D01*
X9016904Y7104048D01*
X8445476Y6532620D01*
X9064523Y6532620D01*
G04 #@! TO.C,J4*
X96186666Y68492620D02*
X96186666Y67778334D01*
X96139047Y67635477D01*
X96043809Y67540239D01*
X95900952Y67492620D01*
X95805714Y67492620D01*
X97091428Y68159286D02*
X97091428Y67492620D01*
X96853333Y68540239D02*
X96615238Y67825953D01*
X97234285Y67825953D01*
G04 #@! TO.C,J5*
X96186666Y45632620D02*
X96186666Y44918334D01*
X96139047Y44775477D01*
X96043809Y44680239D01*
X95900952Y44632620D01*
X95805714Y44632620D01*
X97139047Y45632620D02*
X96662857Y45632620D01*
X96615238Y45156429D01*
X96662857Y45204048D01*
X96758095Y45251667D01*
X96996190Y45251667D01*
X97091428Y45204048D01*
X97139047Y45156429D01*
X97186666Y45061191D01*
X97186666Y44823096D01*
X97139047Y44727858D01*
X97091428Y44680239D01*
X96996190Y44632620D01*
X96758095Y44632620D01*
X96662857Y44680239D01*
X96615238Y44727858D01*
G04 #@! TO.C,D1*
X92606904Y90987620D02*
X92606904Y91987620D01*
X92845000Y91987620D01*
X92987857Y91940000D01*
X93083095Y91844762D01*
X93130714Y91749524D01*
X93178333Y91559048D01*
X93178333Y91416191D01*
X93130714Y91225715D01*
X93083095Y91130477D01*
X92987857Y91035239D01*
X92845000Y90987620D01*
X92606904Y90987620D01*
X94130714Y90987620D02*
X93559285Y90987620D01*
X93845000Y90987620D02*
X93845000Y91987620D01*
X93749761Y91844762D01*
X93654523Y91749524D01*
X93559285Y91701905D01*
G04 #@! TO.C,D2*
X92606904Y87177620D02*
X92606904Y88177620D01*
X92845000Y88177620D01*
X92987857Y88130000D01*
X93083095Y88034762D01*
X93130714Y87939524D01*
X93178333Y87749048D01*
X93178333Y87606191D01*
X93130714Y87415715D01*
X93083095Y87320477D01*
X92987857Y87225239D01*
X92845000Y87177620D01*
X92606904Y87177620D01*
X93559285Y88082381D02*
X93606904Y88130000D01*
X93702142Y88177620D01*
X93940238Y88177620D01*
X94035476Y88130000D01*
X94083095Y88082381D01*
X94130714Y87987143D01*
X94130714Y87891905D01*
X94083095Y87749048D01*
X93511666Y87177620D01*
X94130714Y87177620D01*
G04 #@! TO.C,R6*
X78573333Y87177620D02*
X78240000Y87653810D01*
X78001904Y87177620D02*
X78001904Y88177620D01*
X78382857Y88177620D01*
X78478095Y88130000D01*
X78525714Y88082381D01*
X78573333Y87987143D01*
X78573333Y87844286D01*
X78525714Y87749048D01*
X78478095Y87701429D01*
X78382857Y87653810D01*
X78001904Y87653810D01*
X79430476Y88177620D02*
X79240000Y88177620D01*
X79144761Y88130000D01*
X79097142Y88082381D01*
X79001904Y87939524D01*
X78954285Y87749048D01*
X78954285Y87368096D01*
X79001904Y87272858D01*
X79049523Y87225239D01*
X79144761Y87177620D01*
X79335238Y87177620D01*
X79430476Y87225239D01*
X79478095Y87272858D01*
X79525714Y87368096D01*
X79525714Y87606191D01*
X79478095Y87701429D01*
X79430476Y87749048D01*
X79335238Y87796667D01*
X79144761Y87796667D01*
X79049523Y87749048D01*
X79001904Y87701429D01*
X78954285Y87606191D01*
G04 #@! TO.C,R5*
X78573333Y91622620D02*
X78240000Y92098810D01*
X78001904Y91622620D02*
X78001904Y92622620D01*
X78382857Y92622620D01*
X78478095Y92575000D01*
X78525714Y92527381D01*
X78573333Y92432143D01*
X78573333Y92289286D01*
X78525714Y92194048D01*
X78478095Y92146429D01*
X78382857Y92098810D01*
X78001904Y92098810D01*
X79478095Y92622620D02*
X79001904Y92622620D01*
X78954285Y92146429D01*
X79001904Y92194048D01*
X79097142Y92241667D01*
X79335238Y92241667D01*
X79430476Y92194048D01*
X79478095Y92146429D01*
X79525714Y92051191D01*
X79525714Y91813096D01*
X79478095Y91717858D01*
X79430476Y91670239D01*
X79335238Y91622620D01*
X79097142Y91622620D01*
X79001904Y91670239D01*
X78954285Y91717858D01*
G04 #@! TO.C,RN1*
X15184523Y11612620D02*
X14851190Y12088810D01*
X14613095Y11612620D02*
X14613095Y12612620D01*
X14994047Y12612620D01*
X15089285Y12565000D01*
X15136904Y12517381D01*
X15184523Y12422143D01*
X15184523Y12279286D01*
X15136904Y12184048D01*
X15089285Y12136429D01*
X14994047Y12088810D01*
X14613095Y12088810D01*
X15613095Y11612620D02*
X15613095Y12612620D01*
X16184523Y11612620D01*
X16184523Y12612620D01*
X17184523Y11612620D02*
X16613095Y11612620D01*
X16898809Y11612620D02*
X16898809Y12612620D01*
X16803571Y12469762D01*
X16708333Y12374524D01*
X16613095Y12326905D01*
G04 #@! TO.C,RN2*
X15184523Y39552620D02*
X14851190Y40028810D01*
X14613095Y39552620D02*
X14613095Y40552620D01*
X14994047Y40552620D01*
X15089285Y40505000D01*
X15136904Y40457381D01*
X15184523Y40362143D01*
X15184523Y40219286D01*
X15136904Y40124048D01*
X15089285Y40076429D01*
X14994047Y40028810D01*
X14613095Y40028810D01*
X15613095Y39552620D02*
X15613095Y40552620D01*
X16184523Y39552620D01*
X16184523Y40552620D01*
X16613095Y40457381D02*
X16660714Y40505000D01*
X16755952Y40552620D01*
X16994047Y40552620D01*
X17089285Y40505000D01*
X17136904Y40457381D01*
X17184523Y40362143D01*
X17184523Y40266905D01*
X17136904Y40124048D01*
X16565476Y39552620D01*
X17184523Y39552620D01*
G04 #@! TO.C,RN3*
X15184523Y67492620D02*
X14851190Y67968810D01*
X14613095Y67492620D02*
X14613095Y68492620D01*
X14994047Y68492620D01*
X15089285Y68445000D01*
X15136904Y68397381D01*
X15184523Y68302143D01*
X15184523Y68159286D01*
X15136904Y68064048D01*
X15089285Y68016429D01*
X14994047Y67968810D01*
X14613095Y67968810D01*
X15613095Y67492620D02*
X15613095Y68492620D01*
X16184523Y67492620D01*
X16184523Y68492620D01*
X16565476Y68492620D02*
X17184523Y68492620D01*
X16851190Y68111667D01*
X16994047Y68111667D01*
X17089285Y68064048D01*
X17136904Y68016429D01*
X17184523Y67921191D01*
X17184523Y67683096D01*
X17136904Y67587858D01*
X17089285Y67540239D01*
X16994047Y67492620D01*
X16708333Y67492620D01*
X16613095Y67540239D01*
X16565476Y67587858D01*
G04 #@! TO.C,RN4*
X18994523Y11612620D02*
X18661190Y12088810D01*
X18423095Y11612620D02*
X18423095Y12612620D01*
X18804047Y12612620D01*
X18899285Y12565000D01*
X18946904Y12517381D01*
X18994523Y12422143D01*
X18994523Y12279286D01*
X18946904Y12184048D01*
X18899285Y12136429D01*
X18804047Y12088810D01*
X18423095Y12088810D01*
X19423095Y11612620D02*
X19423095Y12612620D01*
X19994523Y11612620D01*
X19994523Y12612620D01*
X20899285Y12279286D02*
X20899285Y11612620D01*
X20661190Y12660239D02*
X20423095Y11945953D01*
X21042142Y11945953D01*
G04 #@! TO.C,RN5*
X18994523Y39552620D02*
X18661190Y40028810D01*
X18423095Y39552620D02*
X18423095Y40552620D01*
X18804047Y40552620D01*
X18899285Y40505000D01*
X18946904Y40457381D01*
X18994523Y40362143D01*
X18994523Y40219286D01*
X18946904Y40124048D01*
X18899285Y40076429D01*
X18804047Y40028810D01*
X18423095Y40028810D01*
X19423095Y39552620D02*
X19423095Y40552620D01*
X19994523Y39552620D01*
X19994523Y40552620D01*
X20946904Y40552620D02*
X20470714Y40552620D01*
X20423095Y40076429D01*
X20470714Y40124048D01*
X20565952Y40171667D01*
X20804047Y40171667D01*
X20899285Y40124048D01*
X20946904Y40076429D01*
X20994523Y39981191D01*
X20994523Y39743096D01*
X20946904Y39647858D01*
X20899285Y39600239D01*
X20804047Y39552620D01*
X20565952Y39552620D01*
X20470714Y39600239D01*
X20423095Y39647858D01*
G04 #@! TO.C,RN6*
X18994523Y67492620D02*
X18661190Y67968810D01*
X18423095Y67492620D02*
X18423095Y68492620D01*
X18804047Y68492620D01*
X18899285Y68445000D01*
X18946904Y68397381D01*
X18994523Y68302143D01*
X18994523Y68159286D01*
X18946904Y68064048D01*
X18899285Y68016429D01*
X18804047Y67968810D01*
X18423095Y67968810D01*
X19423095Y67492620D02*
X19423095Y68492620D01*
X19994523Y67492620D01*
X19994523Y68492620D01*
X20899285Y68492620D02*
X20708809Y68492620D01*
X20613571Y68445000D01*
X20565952Y68397381D01*
X20470714Y68254524D01*
X20423095Y68064048D01*
X20423095Y67683096D01*
X20470714Y67587858D01*
X20518333Y67540239D01*
X20613571Y67492620D01*
X20804047Y67492620D01*
X20899285Y67540239D01*
X20946904Y67587858D01*
X20994523Y67683096D01*
X20994523Y67921191D01*
X20946904Y68016429D01*
X20899285Y68064048D01*
X20804047Y68111667D01*
X20613571Y68111667D01*
X20518333Y68064048D01*
X20470714Y68016429D01*
X20423095Y67921191D01*
G04 #@! TO.C,J2*
X39036666Y86502620D02*
X39036666Y85788334D01*
X38989047Y85645477D01*
X38893809Y85550239D01*
X38750952Y85502620D01*
X38655714Y85502620D01*
X39465238Y86407381D02*
X39512857Y86455000D01*
X39608095Y86502620D01*
X39846190Y86502620D01*
X39941428Y86455000D01*
X39989047Y86407381D01*
X40036666Y86312143D01*
X40036666Y86216905D01*
X39989047Y86074048D01*
X39417619Y85502620D01*
X40036666Y85502620D01*
G04 #@! TO.C,J3*
X82216666Y32932620D02*
X82216666Y32218334D01*
X82169047Y32075477D01*
X82073809Y31980239D01*
X81930952Y31932620D01*
X81835714Y31932620D01*
X82597619Y32932620D02*
X83216666Y32932620D01*
X82883333Y32551667D01*
X83026190Y32551667D01*
X83121428Y32504048D01*
X83169047Y32456429D01*
X83216666Y32361191D01*
X83216666Y32123096D01*
X83169047Y32027858D01*
X83121428Y31980239D01*
X83026190Y31932620D01*
X82740476Y31932620D01*
X82645238Y31980239D01*
X82597619Y32027858D01*
G04 #@! TO.C,U3*
X25908095Y10282620D02*
X25908095Y9473096D01*
X25955714Y9377858D01*
X26003333Y9330239D01*
X26098571Y9282620D01*
X26289047Y9282620D01*
X26384285Y9330239D01*
X26431904Y9377858D01*
X26479523Y9473096D01*
X26479523Y10282620D01*
X26860476Y10282620D02*
X27479523Y10282620D01*
X27146190Y9901667D01*
X27289047Y9901667D01*
X27384285Y9854048D01*
X27431904Y9806429D01*
X27479523Y9711191D01*
X27479523Y9473096D01*
X27431904Y9377858D01*
X27384285Y9330239D01*
X27289047Y9282620D01*
X27003333Y9282620D01*
X26908095Y9330239D01*
X26860476Y9377858D01*
G04 #@! TO.C,U2*
X25908095Y38222620D02*
X25908095Y37413096D01*
X25955714Y37317858D01*
X26003333Y37270239D01*
X26098571Y37222620D01*
X26289047Y37222620D01*
X26384285Y37270239D01*
X26431904Y37317858D01*
X26479523Y37413096D01*
X26479523Y38222620D01*
X26908095Y38127381D02*
X26955714Y38175000D01*
X27050952Y38222620D01*
X27289047Y38222620D01*
X27384285Y38175000D01*
X27431904Y38127381D01*
X27479523Y38032143D01*
X27479523Y37936905D01*
X27431904Y37794048D01*
X26860476Y37222620D01*
X27479523Y37222620D01*
G04 #@! TO.C,U1*
X25908095Y66162620D02*
X25908095Y65353096D01*
X25955714Y65257858D01*
X26003333Y65210239D01*
X26098571Y65162620D01*
X26289047Y65162620D01*
X26384285Y65210239D01*
X26431904Y65257858D01*
X26479523Y65353096D01*
X26479523Y66162620D01*
X27479523Y65162620D02*
X26908095Y65162620D01*
X27193809Y65162620D02*
X27193809Y66162620D01*
X27098571Y66019762D01*
X27003333Y65924524D01*
X26908095Y65876905D01*
G04 #@! TO.C,R1*
X60793333Y39552620D02*
X60460000Y40028810D01*
X60221904Y39552620D02*
X60221904Y40552620D01*
X60602857Y40552620D01*
X60698095Y40505000D01*
X60745714Y40457381D01*
X60793333Y40362143D01*
X60793333Y40219286D01*
X60745714Y40124048D01*
X60698095Y40076429D01*
X60602857Y40028810D01*
X60221904Y40028810D01*
X61745714Y39552620D02*
X61174285Y39552620D01*
X61460000Y39552620D02*
X61460000Y40552620D01*
X61364761Y40409762D01*
X61269523Y40314524D01*
X61174285Y40266905D01*
G04 #@! TO.C,R2*
X60793333Y42092620D02*
X60460000Y42568810D01*
X60221904Y42092620D02*
X60221904Y43092620D01*
X60602857Y43092620D01*
X60698095Y43045000D01*
X60745714Y42997381D01*
X60793333Y42902143D01*
X60793333Y42759286D01*
X60745714Y42664048D01*
X60698095Y42616429D01*
X60602857Y42568810D01*
X60221904Y42568810D01*
X61174285Y42997381D02*
X61221904Y43045000D01*
X61317142Y43092620D01*
X61555238Y43092620D01*
X61650476Y43045000D01*
X61698095Y42997381D01*
X61745714Y42902143D01*
X61745714Y42806905D01*
X61698095Y42664048D01*
X61126666Y42092620D01*
X61745714Y42092620D01*
G04 #@! TO.C,R4*
X21423333Y7167620D02*
X21090000Y7643810D01*
X20851904Y7167620D02*
X20851904Y8167620D01*
X21232857Y8167620D01*
X21328095Y8120000D01*
X21375714Y8072381D01*
X21423333Y7977143D01*
X21423333Y7834286D01*
X21375714Y7739048D01*
X21328095Y7691429D01*
X21232857Y7643810D01*
X20851904Y7643810D01*
X22280476Y7834286D02*
X22280476Y7167620D01*
X22042380Y8215239D02*
X21804285Y7500953D01*
X22423333Y7500953D01*
G04 #@! TO.C,J7*
X87196666Y33442620D02*
X87196666Y32728334D01*
X87149047Y32585477D01*
X87053809Y32490239D01*
X86910952Y32442620D01*
X86815714Y32442620D01*
X87577619Y33442620D02*
X88244285Y33442620D01*
X87815714Y32442620D01*
G04 #@! TO.C,J6*
X87196666Y20442620D02*
X87196666Y19728334D01*
X87149047Y19585477D01*
X87053809Y19490239D01*
X86910952Y19442620D01*
X86815714Y19442620D01*
X88101428Y20442620D02*
X87910952Y20442620D01*
X87815714Y20395000D01*
X87768095Y20347381D01*
X87672857Y20204524D01*
X87625238Y20014048D01*
X87625238Y19633096D01*
X87672857Y19537858D01*
X87720476Y19490239D01*
X87815714Y19442620D01*
X88006190Y19442620D01*
X88101428Y19490239D01*
X88149047Y19537858D01*
X88196666Y19633096D01*
X88196666Y19871191D01*
X88149047Y19966429D01*
X88101428Y20014048D01*
X88006190Y20061667D01*
X87815714Y20061667D01*
X87720476Y20014048D01*
X87672857Y19966429D01*
X87625238Y19871191D01*
G04 #@! TD*
M02*
